Dinish-Italic.ufo
<glyph name="dollar" format="2">
  <advance width="467"/>
  <unicode hex="0024"/>
  <outline>
    <contour>
      <point x="392" y="499" type="line"/>
      <point x="393" y="512"/>
      <point x="394" y="522"/>
      <point x="394" y="528" type="curve" smooth="yes"/>
      <point x="394" y="573"/>
      <point x="375" y="600"/>
      <point x="337" y="610" type="curve"/>
      <point x="290" y="386" type="line"/>
      <point x="301" y="384" type="line" smooth="yes"/>
      <point x="378" y="369"/>
      <point x="416" y="327"/>
      <point x="416" y="260" type="curve" smooth="yes"/>
      <point x="416" y="241"/>
      <point x="414" y="225"/>
      <point x="411" y="211" type="curve" smooth="yes"/>
      <point x="398" y="157"/>
      <point x="375" y="114"/>
      <point x="342" y="83" type="curve" smooth="yes"/>
      <point x="308" y="52"/>
      <point x="265" y="34"/>
      <point x="214" y="29" type="curve"/>
      <point x="195" y="-60" type="line"/>
      <point x="135" y="-60" type="line"/>
      <point x="155" y="30" type="line"/>
      <point x="113" y="35"/>
      <point x="80" y="49"/>
      <point x="57" y="73" type="curve" smooth="yes"/>
      <point x="34" y="97"/>
      <point x="22" y="130"/>
      <point x="22" y="171" type="curve" smooth="yes"/>
      <point x="22" y="184"/>
      <point x="23" y="199"/>
      <point x="25" y="214" type="curve"/>
      <point x="95" y="214" type="line"/>
      <point x="94" y="201"/>
      <point x="93" y="191"/>
      <point x="93" y="186" type="curve" smooth="yes"/>
      <point x="93" y="134"/>
      <point x="118" y="103"/>
      <point x="168" y="93" type="curve"/>
      <point x="218" y="329" type="line"/>
      <point x="206" y="331" type="line" smooth="yes"/>
      <point x="169" y="339"/>
      <point x="140" y="353"/>
      <point x="121" y="372" type="curve" smooth="yes"/>
      <point x="101" y="391"/>
      <point x="91" y="417"/>
      <point x="91" y="451" type="curve" smooth="yes"/>
      <point x="91" y="468"/>
      <point x="93" y="484"/>
      <point x="96" y="498" type="curve" smooth="yes"/>
      <point x="108" y="551"/>
      <point x="131" y="594"/>
      <point x="166" y="625" type="curve" smooth="yes"/>
      <point x="200" y="656"/>
      <point x="242" y="673"/>
      <point x="292" y="676" type="curve"/>
      <point x="309" y="759" type="line"/>
      <point x="369" y="759" type="line"/>
      <point x="350" y="674" type="line"/>
      <point x="385" y="668"/>
      <point x="413" y="654"/>
      <point x="434" y="631" type="curve" smooth="yes"/>
      <point x="455" y="608"/>
      <point x="465" y="576"/>
      <point x="465" y="536" type="curve" smooth="yes"/>
      <point x="465" y="520"/>
      <point x="464" y="508"/>
      <point x="463" y="499" type="curve"/>
    </contour>
    <contour>
      <point x="274" y="315" type="curve"/>
      <point x="227" y="93" type="line"/>
      <point x="257" y="98"/>
      <point x="281" y="110"/>
      <point x="299" y="129" type="curve" smooth="yes"/>
      <point x="317" y="148"/>
      <point x="330" y="173"/>
      <point x="338" y="206" type="curve" smooth="yes"/>
      <point x="341" y="217"/>
      <point x="342" y="229"/>
      <point x="342" y="241" type="curve" smooth="yes"/>
      <point x="342" y="261"/>
      <point x="337" y="277"/>
      <point x="326" y="289" type="curve" smooth="yes"/>
      <point x="315" y="301"/>
      <point x="297" y="310"/>
    </contour>
    <contour>
      <point x="232" y="398" type="curve"/>
      <point x="278" y="611" type="line"/>
      <point x="249" y="607"/>
      <point x="225" y="596"/>
      <point x="206" y="577" type="curve" smooth="yes"/>
      <point x="187" y="558"/>
      <point x="174" y="533"/>
      <point x="169" y="503" type="curve" smooth="yes"/>
      <point x="166" y="488"/>
      <point x="165" y="477"/>
      <point x="165" y="472" type="curve" smooth="yes"/>
      <point x="164" y="433"/>
      <point x="187" y="408"/>
    </contour>
  </outline>
</glyph>
<glyph name="zero" format="2">
  <advance width="503"/>
  <unicode hex="0030"/>
  <outline>
    <contour>
      <point x="49" y="139" type="curve" smooth="yes"/>
      <point x="49" y="162"/>
      <point x="52" y="187"/>
      <point x="58" y="216" type="curve" smooth="yes"/>
      <point x="118" y="495" type="line" smooth="yes"/>
      <point x="135" y="570"/>
      <point x="161" y="626"/>
      <point x="197" y="663" type="curve" smooth="yes"/>
      <point x="232" y="699"/>
      <point x="280" y="717"/>
      <point x="341" y="717" type="curve" smooth="yes"/>
      <point x="392" y="717"/>
      <point x="430" y="705"/>
      <point x="457" y="680" type="curve" smooth="yes"/>
      <point x="483" y="655"/>
      <point x="496" y="619"/>
      <point x="496" y="570" type="curve" smooth="yes"/>
      <point x="496" y="547"/>
      <point x="493" y="522"/>
      <point x="486" y="495" type="curve" smooth="yes"/>
      <point x="427" y="216" type="line" smooth="yes"/>
      <point x="410" y="139"/>
      <point x="384" y="83"/>
      <point x="349" y="46" type="curve" smooth="yes"/>
      <point x="313" y="9"/>
      <point x="265" y="-10"/>
      <point x="204" y="-10" type="curve" smooth="yes"/>
      <point x="154" y="-10"/>
      <point x="116" y="3"/>
      <point x="89" y="28" type="curve" smooth="yes"/>
      <point x="62" y="53"/>
      <point x="49" y="90"/>
    </contour>
    <contour>
      <point x="355" y="230" type="curve" smooth="yes"/>
      <point x="408" y="476" type="line" smooth="yes"/>
      <point x="415" y="507"/>
      <point x="418" y="535"/>
      <point x="418" y="558" type="curve" smooth="yes"/>
      <point x="418" y="590"/>
      <point x="411" y="613"/>
      <point x="397" y="628" type="curve" smooth="yes"/>
      <point x="383" y="642"/>
      <point x="361" y="649"/>
      <point x="331" y="649" type="curve" smooth="yes"/>
      <point x="292" y="649"/>
      <point x="262" y="636"/>
      <point x="241" y="610" type="curve" smooth="yes"/>
      <point x="219" y="583"/>
      <point x="201" y="539"/>
      <point x="187" y="476" type="curve" smooth="yes"/>
      <point x="135" y="230" type="line" smooth="yes"/>
      <point x="128" y="200"/>
      <point x="125" y="174"/>
      <point x="125" y="151" type="curve" smooth="yes"/>
      <point x="125" y="118"/>
      <point x="132" y="95"/>
      <point x="147" y="80" type="curve" smooth="yes"/>
      <point x="161" y="65"/>
      <point x="183" y="57"/>
      <point x="213" y="57" type="curve" smooth="yes"/>
      <point x="252" y="57"/>
      <point x="283" y="70"/>
      <point x="304" y="97" type="curve" smooth="yes"/>
      <point x="325" y="123"/>
      <point x="342" y="167"/>
    </contour>
  </outline>
</glyph>
<glyph name="zero.tosf" format="2">
  <advance width="524"/>
  <unicode hex="0030"/>
  <outline>
    <contour>
      <point x="70" y="216" type="curve" smooth="yes"/>
      <point x="89" y="307" type="line" smooth="yes"/>
      <point x="120" y="455"/>
      <point x="196" y="529"/>
      <point x="319" y="529" type="curve" smooth="yes"/>
      <point x="443" y="529"/>
      <point x="489" y="455"/>
      <point x="458" y="307" type="curve" smooth="yes"/>
      <point x="439" y="216" type="line" smooth="yes"/>
      <point x="408" y="65"/>
      <point x="331" y="-10"/>
      <point x="207" y="-10" type="curve" smooth="yes"/>
      <point x="84" y="-10"/>
      <point x="39" y="65"/>
    </contour>
    <contour>
      <point x="314" y="97" type="curve" smooth="yes"/>
      <point x="337" y="124"/>
      <point x="354" y="168"/>
      <point x="367" y="230" type="curve" smooth="yes"/>
      <point x="379" y="288" type="line" smooth="yes"/>
      <point x="392" y="350"/>
      <point x="393" y="394"/>
      <point x="382" y="421" type="curve" smooth="yes"/>
      <point x="370" y="448"/>
      <point x="345" y="461"/>
      <point x="305" y="461" type="curve" smooth="yes"/>
      <point x="265" y="461"/>
      <point x="234" y="448"/>
      <point x="212" y="421" type="curve" smooth="yes"/>
      <point x="189" y="394"/>
      <point x="172" y="350"/>
      <point x="159" y="288" type="curve" smooth="yes"/>
      <point x="147" y="230" type="line" smooth="yes"/>
      <point x="134" y="168"/>
      <point x="133" y="124"/>
      <point x="144" y="97" type="curve" smooth="yes"/>
      <point x="156" y="70"/>
      <point x="181" y="57"/>
      <point x="221" y="57" type="curve" smooth="yes"/>
      <point x="261" y="57"/>
      <point x="292" y="70"/>
    </contour>
  </outline>
</glyph>
<glyph name="one.osf" format="2">
  <advance width="336"/>
  <unicode hex="0031"/>
  <outline>
    <contour>
      <point x="208" y="433" type="line"/>
      <point x="67" y="341" type="line"/>
      <point x="84" y="425" type="line"/>
      <point x="225" y="519" type="line"/>
      <point x="300" y="519" type="line"/>
      <point x="192" y="0" type="line"/>
      <point x="118" y="0" type="line"/>
    </contour>
  </outline>
</glyph>
<glyph name="one.tlf" format="2">
  <advance width="524"/>
  <unicode hex="0031"/>
  <outline>
    <contour>
      <point x="419" y="620" type="line"/>
      <point x="177" y="488" type="line"/>
      <point x="194" y="572" type="line"/>
      <point x="436" y="706" type="line"/>
      <point x="511" y="706" type="line"/>
      <point x="360" y="-1" type="line"/>
      <point x="287" y="-1" type="line"/>
    </contour>
  </outline>
</glyph>
<glyph name="one.tosf" format="2">
  <advance width="524"/>
  <unicode hex="0031"/>
  <outline>
    <contour>
      <point x="385" y="433" type="line"/>
      <point x="160" y="312" type="line"/>
      <point x="178" y="398" type="line"/>
      <point x="402" y="519" type="line"/>
      <point x="477" y="519" type="line"/>
      <point x="369" y="0" type="line"/>
      <point x="295" y="0" type="line"/>
    </contour>
  </outline>
</glyph>
<glyph name="three" format="2">
  <advance width="506"/>
  <unicode hex="0033"/>
  <outline>
    <contour>
      <point x="40" y="126" type="curve" smooth="yes"/>
      <point x="40" y="145"/>
      <point x="42" y="161"/>
      <point x="45" y="175" type="curve"/>
      <point x="120" y="175" type="line"/>
      <point x="117" y="158"/>
      <point x="116" y="147"/>
      <point x="116" y="140" type="curve" smooth="yes"/>
      <point x="116" y="112"/>
      <point x="124" y="91"/>
      <point x="140" y="77" type="curve" smooth="yes"/>
      <point x="156" y="63"/>
      <point x="179" y="56"/>
      <point x="210" y="56" type="curve" smooth="yes"/>
      <point x="245" y="56"/>
      <point x="275" y="67"/>
      <point x="300" y="89" type="curve" smooth="yes"/>
      <point x="325" y="111"/>
      <point x="341" y="141"/>
      <point x="348" y="178" type="curve" smooth="yes"/>
      <point x="354" y="208"/>
      <point x="357" y="229"/>
      <point x="357" y="242" type="curve" smooth="yes"/>
      <point x="357" y="271"/>
      <point x="349" y="293"/>
      <point x="333" y="309" type="curve" smooth="yes"/>
      <point x="317" y="325"/>
      <point x="293" y="333"/>
      <point x="262" y="333" type="curve" smooth="yes"/>
      <point x="222" y="333" type="line"/>
      <point x="238" y="400" type="line"/>
      <point x="273" y="400" type="line" smooth="yes"/>
      <point x="307" y="400"/>
      <point x="337" y="411"/>
      <point x="362" y="432" type="curve" smooth="yes"/>
      <point x="387" y="453"/>
      <point x="402" y="481"/>
      <point x="409" y="516" type="curve" smooth="yes"/>
      <point x="414" y="543"/>
      <point x="416" y="559"/>
      <point x="416" y="566" type="curve" smooth="yes"/>
      <point x="416" y="592"/>
      <point x="408" y="613"/>
      <point x="392" y="628" type="curve" smooth="yes"/>
      <point x="376" y="643"/>
      <point x="354" y="650"/>
      <point x="327" y="650" type="curve" smooth="yes"/>
      <point x="259" y="650"/>
      <point x="217" y="609"/>
      <point x="200" y="528" type="curve"/>
      <point x="128" y="528" type="line"/>
      <point x="153" y="653"/>
      <point x="224" y="716"/>
      <point x="339" y="717" type="curve" smooth="yes"/>
      <point x="386" y="717"/>
      <point x="424" y="705"/>
      <point x="452" y="681" type="curve" smooth="yes"/>
      <point x="480" y="657"/>
      <point x="494" y="624"/>
      <point x="494" y="583" type="curve" smooth="yes"/>
      <point x="494" y="570"/>
      <point x="490" y="548"/>
      <point x="483" y="517" type="curve" smooth="yes"/>
      <point x="475" y="483"/>
      <point x="460" y="454"/>
      <point x="439" y="429" type="curve" smooth="yes"/>
      <point x="418" y="404"/>
      <point x="392" y="386"/>
      <point x="361" y="373" type="curve"/>
      <point x="385" y="364"/>
      <point x="403" y="350"/>
      <point x="415" y="329" type="curve" smooth="yes"/>
      <point x="427" y="308"/>
      <point x="433" y="284"/>
      <point x="433" y="256" type="curve" smooth="yes"/>
      <point x="433" y="240"/>
      <point x="430" y="215"/>
      <point x="423" y="182" type="curve" smooth="yes"/>
      <point x="411" y="123"/>
      <point x="385" y="76"/>
      <point x="345" y="42" type="curve" smooth="yes"/>
      <point x="305" y="7"/>
      <point x="257" y="-10"/>
      <point x="200" y="-10" type="curve" smooth="yes"/>
      <point x="149" y="-10"/>
      <point x="109" y="2"/>
      <point x="82" y="25" type="curve" smooth="yes"/>
      <point x="54" y="48"/>
      <point x="40" y="82"/>
    </contour>
  </outline>
</glyph>
<glyph name="three.tosf" format="2">
  <advance width="524"/>
  <unicode hex="0033"/>
  <outline>
    <contour>
      <point x="42" y="-117" type="curve" smooth="yes"/>
      <point x="15" y="-87"/>
      <point x="6" y="-45"/>
      <point x="16" y="7" type="curve" smooth="yes"/>
      <point x="20" y="23" type="line"/>
      <point x="95" y="23" type="line"/>
      <point x="92" y="10" type="line" smooth="yes"/>
      <point x="85" y="-23"/>
      <point x="90" y="-49"/>
      <point x="106" y="-68" type="curve" smooth="yes"/>
      <point x="122" y="-87"/>
      <point x="148" y="-96"/>
      <point x="182" y="-96" type="curve" smooth="yes"/>
      <point x="218" y="-96"/>
      <point x="249" y="-84"/>
      <point x="274" y="-62" type="curve" smooth="yes"/>
      <point x="300" y="-40"/>
      <point x="314" y="-21"/>
      <point x="322" y="17" type="curve" smooth="yes"/>
      <point x="328" y="46" type="line" smooth="yes"/>
      <point x="336" y="85"/>
      <point x="330" y="106"/>
      <point x="312" y="128" type="curve" smooth="yes"/>
      <point x="293" y="150"/>
      <point x="269" y="163"/>
      <point x="231" y="163" type="curve" smooth="yes"/>
      <point x="194" y="163" type="line"/>
      <point x="208" y="230" type="line"/>
      <point x="244" y="230" type="line" smooth="yes"/>
      <point x="278" y="230"/>
      <point x="306" y="241"/>
      <point x="332" y="263" type="curve" smooth="yes"/>
      <point x="357" y="285"/>
      <point x="369" y="302"/>
      <point x="376" y="337" type="curve" smooth="yes"/>
      <point x="381" y="360" type="line" smooth="yes"/>
      <point x="388" y="394"/>
      <point x="384" y="413"/>
      <point x="368" y="432" type="curve" smooth="yes"/>
      <point x="352" y="451"/>
      <point x="329" y="462"/>
      <point x="296" y="462" type="curve" smooth="yes"/>
      <point x="263" y="462"/>
      <point x="235" y="453"/>
      <point x="213" y="434" type="curve" smooth="yes"/>
      <point x="191" y="415"/>
      <point x="176" y="389"/>
      <point x="169" y="357" type="curve" smooth="yes"/>
      <point x="166" y="340" type="line"/>
      <point x="95" y="340" type="line"/>
      <point x="99" y="359" type="line" smooth="yes"/>
      <point x="109" y="411"/>
      <point x="133" y="452"/>
      <point x="171" y="483" type="curve" smooth="yes"/>
      <point x="210" y="514"/>
      <point x="257" y="529"/>
      <point x="312" y="529" type="curve" smooth="yes"/>
      <point x="367" y="529"/>
      <point x="407" y="513"/>
      <point x="432" y="481" type="curve" smooth="yes"/>
      <point x="457" y="449"/>
      <point x="467" y="417"/>
      <point x="456" y="364" type="curve" smooth="yes"/>
      <point x="450" y="339" type="line" smooth="yes"/>
      <point x="443" y="305"/>
      <point x="430" y="285"/>
      <point x="409" y="260" type="curve" smooth="yes"/>
      <point x="388" y="235"/>
      <point x="363" y="216"/>
      <point x="333" y="204" type="curve"/>
      <point x="364" y="192"/>
      <point x="385" y="171"/>
      <point x="396" y="142" type="curve" smooth="yes"/>
      <point x="407" y="113"/>
      <point x="410" y="88"/>
      <point x="402" y="48" type="curve" smooth="yes"/>
      <point x="396" y="21" type="line" smooth="yes"/>
      <point x="384" y="-38"/>
      <point x="359" y="-75"/>
      <point x="317" y="-110" type="curve" smooth="yes"/>
      <point x="275" y="-145"/>
      <point x="224" y="-162"/>
      <point x="167" y="-162" type="curve" smooth="yes"/>
      <point x="110" y="-162"/>
      <point x="68" y="-147"/>
    </contour>
  </outline>
</glyph>
<glyph name="four.tosf" format="2">
  <advance width="524"/>
  <unicode hex="0034"/>
  <outline>
    <contour>
      <point x="416" y="-22" type="line"/>
      <point x="339" y="-22" type="line"/>
      <point x="311" y="-160" type="line"/>
      <point x="236" y="-160" type="line"/>
      <point x="264" y="-22" type="line"/>
      <point x="-1" y="-22" type="line"/>
      <point x="14" y="46" type="line"/>
      <point x="324" y="519" type="line"/>
      <point x="399" y="519" type="line"/>
      <point x="89" y="46" type="line"/>
      <point x="279" y="46" type="line"/>
      <point x="318" y="238" type="line"/>
      <point x="393" y="238" type="line"/>
      <point x="354" y="46" type="line"/>
      <point x="431" y="46" type="line"/>
    </contour>
  </outline>
</glyph>
<glyph name="five" format="2">
  <advance width="494"/>
  <unicode hex="0035"/>
  <outline>
    <contour>
      <point x="42" y="116" type="curve" smooth="yes"/>
      <point x="42" y="132"/>
      <point x="44" y="149"/>
      <point x="48" y="167" type="curve"/>
      <point x="118" y="167" type="line"/>
      <point x="117" y="155"/>
      <point x="116" y="146"/>
      <point x="116" y="140" type="curve" smooth="yes"/>
      <point x="116" y="85"/>
      <point x="146" y="57"/>
      <point x="205" y="57" type="curve" smooth="yes"/>
      <point x="277" y="57"/>
      <point x="321" y="101"/>
      <point x="338" y="190" type="curve" smooth="yes"/>
      <point x="351" y="257" type="line" smooth="yes"/>
      <point x="354" y="273"/>
      <point x="356" y="289"/>
      <point x="356" y="306" type="curve" smooth="yes"/>
      <point x="356" y="363"/>
      <point x="327" y="391"/>
      <point x="270" y="391" type="curve" smooth="yes"/>
      <point x="245" y="391"/>
      <point x="222" y="385"/>
      <point x="202" y="372" type="curve" smooth="yes"/>
      <point x="182" y="359"/>
      <point x="167" y="342"/>
      <point x="156" y="319" type="curve"/>
      <point x="90" y="319" type="line"/>
      <point x="172" y="707" type="line"/>
      <point x="510" y="707" type="line"/>
      <point x="496" y="638" type="line"/>
      <point x="226" y="638" type="line"/>
      <point x="178" y="413" type="line"/>
      <point x="189" y="426"/>
      <point x="205" y="437"/>
      <point x="226" y="446" type="curve" smooth="yes"/>
      <point x="246" y="455"/>
      <point x="268" y="459"/>
      <point x="291" y="459" type="curve" smooth="yes"/>
      <point x="338" y="459"/>
      <point x="374" y="447"/>
      <point x="398" y="424" type="curve" smooth="yes"/>
      <point x="422" y="400"/>
      <point x="434" y="366"/>
      <point x="434" y="323" type="curve" smooth="yes"/>
      <point x="434" y="302"/>
      <point x="432" y="281"/>
      <point x="427" y="260" type="curve" smooth="yes"/>
      <point x="411" y="182" type="line" smooth="yes"/>
      <point x="398" y="120"/>
      <point x="374" y="73"/>
      <point x="337" y="40" type="curve" smooth="yes"/>
      <point x="300" y="7"/>
      <point x="253" y="-10"/>
      <point x="196" y="-10" type="curve" smooth="yes"/>
      <point x="147" y="-10"/>
      <point x="109" y="1"/>
      <point x="82" y="22" type="curve" smooth="yes"/>
      <point x="55" y="43"/>
      <point x="42" y="75"/>
    </contour>
  </outline>
</glyph>
<glyph name="five.tosf" format="2">
  <advance width="524"/>
  <unicode hex="0035"/>
  <outline>
    <contour>
      <point x="45" y="-128" type="curve" smooth="yes"/>
      <point x="19" y="-99"/>
      <point x="13" y="-59"/>
      <point x="23" y="-8" type="curve" smooth="yes"/>
      <point x="26" y="5" type="line"/>
      <point x="97" y="5" type="line"/>
      <point x="96" y="-2" type="line" smooth="yes"/>
      <point x="89" y="-35"/>
      <point x="94" y="-60"/>
      <point x="108" y="-78" type="curve" smooth="yes"/>
      <point x="122" y="-96"/>
      <point x="147" y="-105"/>
      <point x="181" y="-105" type="curve" smooth="yes"/>
      <point x="253" y="-105"/>
      <point x="297" y="-61"/>
      <point x="316" y="28" type="curve" smooth="yes"/>
      <point x="328" y="85" type="line" smooth="yes"/>
      <point x="337" y="130"/>
      <point x="335" y="164"/>
      <point x="323" y="186" type="curve" smooth="yes"/>
      <point x="310" y="208"/>
      <point x="286" y="219"/>
      <point x="250" y="219" type="curve" smooth="yes"/>
      <point x="225" y="219"/>
      <point x="201" y="213"/>
      <point x="181" y="200" type="curve" smooth="yes"/>
      <point x="160" y="187"/>
      <point x="144" y="170"/>
      <point x="132" y="147" type="curve"/>
      <point x="67" y="147" type="line"/>
      <point x="144" y="519" type="line"/>
      <point x="482" y="519" type="line"/>
      <point x="468" y="450" type="line"/>
      <point x="198" y="450" type="line"/>
      <point x="154" y="241" type="line"/>
      <point x="169" y="255"/>
      <point x="188" y="265"/>
      <point x="209" y="274" type="curve" smooth="yes"/>
      <point x="230" y="283"/>
      <point x="251" y="287"/>
      <point x="274" y="287" type="curve" smooth="yes"/>
      <point x="331" y="287"/>
      <point x="369" y="270"/>
      <point x="391" y="236" type="curve" smooth="yes"/>
      <point x="413" y="202"/>
      <point x="417" y="152"/>
      <point x="404" y="89" type="curve" smooth="yes"/>
      <point x="390" y="22" type="line" smooth="yes"/>
      <point x="377" y="-39"/>
      <point x="351" y="-87"/>
      <point x="312" y="-121" type="curve" smooth="yes"/>
      <point x="273" y="-155"/>
      <point x="225" y="-172"/>
      <point x="168" y="-172" type="curve" smooth="yes"/>
      <point x="112" y="-172"/>
      <point x="71" y="-157"/>
    </contour>
  </outline>
</glyph>
<glyph name="six" format="2">
  <advance width="505"/>
  <unicode hex="0036"/>
  <outline>
    <contour>
      <point x="41" y="137" type="curve" smooth="yes"/>
      <point x="41" y="148"/>
      <point x="42" y="159"/>
      <point x="43" y="171" type="curve" smooth="yes"/>
      <point x="44" y="182"/>
      <point x="48" y="200"/>
      <point x="53" y="224" type="curve" smooth="yes"/>
      <point x="63" y="271"/>
      <point x="87" y="321"/>
      <point x="124" y="374" type="curve" smooth="yes"/>
      <point x="359" y="707" type="line"/>
      <point x="440" y="707" type="line"/>
      <point x="222" y="396" type="line"/>
      <point x="231" y="402"/>
      <point x="242" y="407"/>
      <point x="257" y="412" type="curve" smooth="yes"/>
      <point x="271" y="416"/>
      <point x="286" y="418"/>
      <point x="301" y="418" type="curve" smooth="yes"/>
      <point x="344" y="418"/>
      <point x="379" y="405"/>
      <point x="405" y="380" type="curve" smooth="yes"/>
      <point x="430" y="355"/>
      <point x="443" y="320"/>
      <point x="443" y="275" type="curve" smooth="yes"/>
      <point x="443" y="264"/>
      <point x="442" y="251"/>
      <point x="440" y="237" type="curve" smooth="yes"/>
      <point x="437" y="223"/>
      <point x="434" y="207"/>
      <point x="430" y="188" type="curve" smooth="yes"/>
      <point x="417" y="126"/>
      <point x="390" y="78"/>
      <point x="349" y="43" type="curve" smooth="yes"/>
      <point x="308" y="8"/>
      <point x="259" y="-10"/>
      <point x="203" y="-10" type="curve" smooth="yes"/>
      <point x="152" y="-10"/>
      <point x="113" y="3"/>
      <point x="84" y="29" type="curve" smooth="yes"/>
      <point x="55" y="55"/>
      <point x="41" y="91"/>
    </contour>
    <contour>
      <point x="354" y="185" type="curve" smooth="yes"/>
      <point x="357" y="196"/>
      <point x="359" y="206"/>
      <point x="360" y="215" type="curve" smooth="yes"/>
      <point x="364" y="233"/>
      <point x="366" y="247"/>
      <point x="367" y="256" type="curve" smooth="yes"/>
      <point x="367" y="285"/>
      <point x="358" y="308"/>
      <point x="341" y="325" type="curve" smooth="yes"/>
      <point x="323" y="342"/>
      <point x="299" y="350"/>
      <point x="269" y="350" type="curve" smooth="yes"/>
      <point x="234" y="350"/>
      <point x="203" y="339"/>
      <point x="178" y="316" type="curve" smooth="yes"/>
      <point x="153" y="293"/>
      <point x="136" y="262"/>
      <point x="128" y="222" type="curve" smooth="yes"/>
      <point x="124" y="203"/>
      <point x="121" y="189"/>
      <point x="120" y="180" type="curve" smooth="yes"/>
      <point x="119" y="171"/>
      <point x="118" y="162"/>
      <point x="118" y="153" type="curve" smooth="yes"/>
      <point x="118" y="123"/>
      <point x="126" y="99"/>
      <point x="143" y="82" type="curve" smooth="yes"/>
      <point x="160" y="65"/>
      <point x="183" y="56"/>
      <point x="213" y="56" type="curve" smooth="yes"/>
      <point x="249" y="56"/>
      <point x="280" y="68"/>
      <point x="305" y="91" type="curve" smooth="yes"/>
      <point x="330" y="114"/>
      <point x="346" y="145"/>
    </contour>
  </outline>
</glyph>
<glyph name="nine.tosf" format="2">
  <advance width="524"/>
  <unicode hex="0039"/>
  <outline>
    <contour>
      <point x="298" y="139" type="line"/>
      <point x="289" y="133"/>
      <point x="277" y="129"/>
      <point x="262" y="125" type="curve" smooth="yes"/>
      <point x="247" y="121"/>
      <point x="233" y="119"/>
      <point x="218" y="119" type="curve" smooth="yes"/>
      <point x="165" y="119"/>
      <point x="125" y="136"/>
      <point x="100" y="170" type="curve" smooth="yes"/>
      <point x="75" y="203"/>
      <point x="68" y="248"/>
      <point x="79" y="303" type="curve" smooth="yes"/>
      <point x="86" y="337" type="line" smooth="yes"/>
      <point x="94" y="377"/>
      <point x="111" y="412"/>
      <point x="134" y="441" type="curve" smooth="yes"/>
      <point x="157" y="469"/>
      <point x="183" y="491"/>
      <point x="215" y="507" type="curve" smooth="yes"/>
      <point x="248" y="522"/>
      <point x="282" y="530"/>
      <point x="319" y="530" type="curve" smooth="yes"/>
      <point x="378" y="530"/>
      <point x="421" y="513"/>
      <point x="448" y="478" type="curve" smooth="yes"/>
      <point x="476" y="443"/>
      <point x="484" y="397"/>
      <point x="471" y="339" type="curve" smooth="yes"/>
      <point x="464" y="305" type="line" smooth="yes"/>
      <point x="459" y="281"/>
      <point x="452" y="258"/>
      <point x="440" y="236" type="curve" smooth="yes"/>
      <point x="429" y="214"/>
      <point x="412" y="189"/>
      <point x="392" y="161" type="curve" smooth="yes"/>
      <point x="163" y="-157" type="line"/>
      <point x="85" y="-157" type="line"/>
    </contour>
    <contour>
      <point x="340" y="221" type="curve" smooth="yes"/>
      <point x="365" y="242"/>
      <point x="382" y="270"/>
      <point x="390" y="307" type="curve" smooth="yes"/>
      <point x="396" y="339" type="line" smooth="yes"/>
      <point x="404" y="376"/>
      <point x="399" y="405"/>
      <point x="383" y="428" type="curve" smooth="yes"/>
      <point x="367" y="450"/>
      <point x="341" y="460"/>
      <point x="305" y="460" type="curve" smooth="yes"/>
      <point x="269" y="460"/>
      <point x="238" y="450"/>
      <point x="212" y="428" type="curve" smooth="yes"/>
      <point x="186" y="405"/>
      <point x="169" y="377"/>
      <point x="162" y="340" type="curve" smooth="yes"/>
      <point x="155" y="308" type="line" smooth="yes"/>
      <point x="147" y="271"/>
      <point x="152" y="242"/>
      <point x="169" y="221" type="curve" smooth="yes"/>
      <point x="186" y="200"/>
      <point x="212" y="189"/>
      <point x="248" y="189" type="curve" smooth="yes"/>
      <point x="284" y="189"/>
      <point x="315" y="200"/>
    </contour>
  </outline>
</glyph>
<glyph name="D" format="2">
  <advance width="634"/>
  <unicode hex="0044"/>
  <outline>
    <contour>
      <point x="177" y="707" type="line"/>
      <point x="417" y="707" type="line" smooth="yes"/>
      <point x="478" y="707"/>
      <point x="527" y="693"/>
      <point x="562" y="664" type="curve" smooth="yes"/>
      <point x="597" y="635"/>
      <point x="615" y="588"/>
      <point x="615" y="525" type="curve" smooth="yes"/>
      <point x="615" y="498"/>
      <point x="612" y="468"/>
      <point x="605" y="437" type="curve" smooth="yes"/>
      <point x="569" y="269" type="line" smooth="yes"/>
      <point x="549" y="176"/>
      <point x="513" y="108"/>
      <point x="460" y="65" type="curve" smooth="yes"/>
      <point x="407" y="22"/>
      <point x="343" y="0"/>
      <point x="268" y="0" type="curve" smooth="yes"/>
      <point x="27" y="0" type="line"/>
    </contour>
    <contour>
      <point x="283" y="68" type="line" smooth="yes"/>
      <point x="396" y="68"/>
      <point x="466" y="134"/>
      <point x="494" y="265" type="curve" smooth="yes"/>
      <point x="529" y="434" type="line" smooth="yes"/>
      <point x="536" y="468"/>
      <point x="539" y="495"/>
      <point x="540" y="515" type="curve" smooth="yes"/>
      <point x="540" y="558"/>
      <point x="529" y="590"/>
      <point x="506" y="610" type="curve" smooth="yes"/>
      <point x="483" y="629"/>
      <point x="451" y="639"/>
      <point x="408" y="639" type="curve" smooth="yes"/>
      <point x="238" y="639" type="line"/>
      <point x="117" y="68" type="line"/>
    </contour>
  </outline>
</glyph>
<glyph name="I" format="2">
  <advance width="254"/>
  <unicode hex="0049"/>
  <anchor x="222" y="707" name="top"/>
  <outline>
    <contour>
      <point x="185" y="707" type="line"/>
      <point x="260" y="707" type="line"/>
      <point x="110" y="0" type="line"/>
      <point x="35" y="0" type="line"/>
    </contour>
  </outline>
</glyph>
<glyph name="J" format="2">
  <advance width="321"/>
  <unicode hex="004A"/>
  <outline>
    <contour>
      <point x="-7" y="68" type="line"/>
      <point x="50" y="68" type="line" smooth="yes"/>
      <point x="73" y="68"/>
      <point x="92" y="74"/>
      <point x="105" y="86" type="curve" smooth="yes"/>
      <point x="118" y="98"/>
      <point x="127" y="118"/>
      <point x="132" y="145" type="curve" smooth="yes"/>
      <point x="251" y="707" type="line"/>
      <point x="326" y="707" type="line"/>
      <point x="205" y="136" type="line" smooth="yes"/>
      <point x="196" y="91"/>
      <point x="179" y="58"/>
      <point x="152" y="35" type="curve" smooth="yes"/>
      <point x="125" y="12"/>
      <point x="90" y="0"/>
      <point x="47" y="0" type="curve" smooth="yes"/>
      <point x="-23" y="0" type="line"/>
    </contour>
  </outline>
</glyph>
<glyph name="N" format="2">
  <advance width="678"/>
  <unicode hex="004E"/>
  <anchor x="424" y="707" name="top"/>
  <outline>
    <contour>
      <point x="692" y="707" type="line"/>
      <point x="542" y="0" type="line"/>
      <point x="467" y="0" type="line"/>
      <point x="222" y="569" type="line"/>
      <point x="101" y="0" type="line"/>
      <point x="27" y="0" type="line"/>
      <point x="177" y="707" type="line"/>
      <point x="252" y="707" type="line"/>
      <point x="497" y="139" type="line"/>
      <point x="618" y="707" type="line"/>
    </contour>
  </outline>
</glyph>
<glyph name="P" format="2">
  <advance width="592"/>
  <unicode hex="0050"/>
  <outline>
    <contour>
      <point x="613" y="616"/>
      <point x="613" y="539" type="qcurve" smooth="yes"/>
      <point x="613" y="464"/>
      <point x="545" y="350"/>
      <point x="420" y="287"/>
      <point x="340" y="287" type="qcurve" smooth="yes"/>
      <point x="163" y="287" type="line"/>
      <point x="101" y="0" type="line"/>
      <point x="27" y="0" type="line"/>
      <point x="176" y="701" type="line"/>
      <point x="429" y="701" type="line" smooth="yes"/>
      <point x="516" y="701"/>
    </contour>
    <contour>
      <point x="538" y="443"/>
      <point x="538" y="528" type="qcurve" smooth="yes"/>
      <point x="538" y="633"/>
      <point x="410" y="634" type="qcurve" smooth="yes"/>
      <point x="237" y="634" type="line"/>
      <point x="177" y="353" type="line"/>
      <point x="347" y="353" type="line" smooth="yes"/>
      <point x="434" y="353"/>
    </contour>
  </outline>
</glyph>
<glyph name="U" format="2">
  <advance width="650"/>
  <unicode hex="0055"/>
  <anchor x="415" y="707" name="top"/>
  <outline>
    <contour>
      <point x="71" y="96"/>
      <point x="71" y="181" type="qcurve" smooth="yes"/>
      <point x="71" y="207"/>
      <point x="77" y="234" type="qcurve" smooth="yes"/>
      <point x="177" y="707" type="line"/>
      <point x="253" y="707" type="line"/>
      <point x="153" y="237" type="line" smooth="yes"/>
      <point x="148" y="209"/>
      <point x="147" y="190" type="qcurve" smooth="yes"/>
      <point x="147" y="130"/>
      <point x="223" y="60"/>
      <point x="290" y="60" type="qcurve" smooth="yes"/>
      <point x="367" y="60"/>
      <point x="471" y="154"/>
      <point x="488" y="237" type="qcurve" smooth="yes"/>
      <point x="589" y="707" type="line"/>
      <point x="664" y="707" type="line"/>
      <point x="562" y="230" type="line" smooth="yes"/>
      <point x="539" y="122"/>
      <point x="390" y="-6"/>
      <point x="283" y="-6" type="qcurve" smooth="yes"/>
      <point x="188" y="-6"/>
    </contour>
  </outline>
</glyph>
<glyph name="Z" format="2">
  <advance width="533"/>
  <unicode hex="005A"/>
  <anchor x="349" y="707" name="top"/>
  <outline>
    <contour>
      <point x="569" y="639" type="line"/>
      <point x="86" y="68" type="line"/>
      <point x="452" y="68" type="line"/>
      <point x="437" y="0" type="line"/>
      <point x="-14" y="0" type="line"/>
      <point x="0" y="68" type="line"/>
      <point x="482" y="639" type="line"/>
      <point x="136" y="639" type="line"/>
      <point x="150" y="707" type="line"/>
      <point x="584" y="707" type="line"/>
    </contour>
  </outline>
</glyph>
<glyph name="c" format="2">
  <advance width="516"/>
  <unicode hex="0063"/>
  <outline>
    <contour>
      <point x="43" y="147" type="curve" smooth="yes"/>
      <point x="43" y="168"/>
      <point x="45" y="190"/>
      <point x="50" y="213" type="curve" smooth="yes"/>
      <point x="72" y="313" type="line" smooth="yes"/>
      <point x="103" y="455"/>
      <point x="182" y="526"/>
      <point x="310" y="526" type="curve" smooth="yes"/>
      <point x="364" y="526"/>
      <point x="405" y="513"/>
      <point x="433" y="488" type="curve" smooth="yes"/>
      <point x="461" y="462"/>
      <point x="475" y="424"/>
      <point x="475" y="374" type="curve" smooth="yes"/>
      <point x="475" y="363"/>
      <point x="475" y="354"/>
      <point x="474" y="348" type="curve"/>
      <point x="407" y="348" type="line"/>
      <point x="408" y="366" type="line" smooth="yes"/>
      <point x="408" y="399"/>
      <point x="400" y="423"/>
      <point x="383" y="439" type="curve" smooth="yes"/>
      <point x="366" y="455"/>
      <point x="340" y="463"/>
      <point x="306" y="463" type="curve" smooth="yes"/>
      <point x="264" y="463"/>
      <point x="229" y="452"/>
      <point x="201" y="429" type="curve" smooth="yes"/>
      <point x="173" y="406"/>
      <point x="153" y="366"/>
      <point x="140" y="309" type="curve" smooth="yes"/>
      <point x="121" y="217" type="line" smooth="yes"/>
      <point x="116" y="196"/>
      <point x="114" y="176"/>
      <point x="114" y="158" type="curve" smooth="yes"/>
      <point x="114" y="121"/>
      <point x="124" y="94"/>
      <point x="144" y="79" type="curve" smooth="yes"/>
      <point x="163" y="64"/>
      <point x="190" y="56"/>
      <point x="225" y="56" type="curve" smooth="yes"/>
      <point x="266" y="56"/>
      <point x="298" y="66"/>
      <point x="322" y="86" type="curve" smooth="yes"/>
      <point x="346" y="106"/>
      <point x="361" y="134"/>
      <point x="368" y="171" type="curve"/>
      <point x="434" y="171" type="line"/>
      <point x="428" y="116"/>
      <point x="406" y="73"/>
      <point x="368" y="42" type="curve" smooth="yes"/>
      <point x="329" y="10"/>
      <point x="280" y="-6"/>
      <point x="220" y="-6" type="curve" smooth="yes"/>
      <point x="166" y="-6"/>
      <point x="123" y="6"/>
      <point x="91" y="31" type="curve" smooth="yes"/>
      <point x="59" y="56"/>
      <point x="43" y="94"/>
    </contour>
  </outline>
</glyph>
<glyph name="e" format="2">
  <advance width="516"/>
  <unicode hex="0065"/>
  <anchor x="307" y="519" name="top"/>
  <outline>
    <contour>
      <point x="473" y="375" type="curve" smooth="yes"/>
      <point x="473" y="356"/>
      <point x="470" y="332"/>
      <point x="465" y="305" type="curve" smooth="yes"/>
      <point x="453" y="246" type="line"/>
      <point x="128" y="246" type="line"/>
      <point x="122" y="214" type="line" smooth="yes"/>
      <point x="117" y="193"/>
      <point x="115" y="173"/>
      <point x="115" y="155" type="curve" smooth="yes"/>
      <point x="115" y="119"/>
      <point x="125" y="94"/>
      <point x="144" y="79" type="curve" smooth="yes"/>
      <point x="163" y="64"/>
      <point x="190" y="56"/>
      <point x="224" y="56" type="curve" smooth="yes"/>
      <point x="259" y="56"/>
      <point x="289" y="65"/>
      <point x="313" y="83" type="curve" smooth="yes"/>
      <point x="337" y="101"/>
      <point x="353" y="127"/>
      <point x="362" y="160" type="curve"/>
      <point x="430" y="160" type="line"/>
      <point x="419" y="107"/>
      <point x="395" y="66"/>
      <point x="358" y="37" type="curve" smooth="yes"/>
      <point x="321" y="8"/>
      <point x="273" y="-6"/>
      <point x="215" y="-6" type="curve" smooth="yes"/>
      <point x="163" y="-6"/>
      <point x="122" y="7"/>
      <point x="91" y="32" type="curve" smooth="yes"/>
      <point x="60" y="57"/>
      <point x="44" y="97"/>
      <point x="44" y="150" type="curve" smooth="yes"/>
      <point x="44" y="169"/>
      <point x="47" y="191"/>
      <point x="52" y="218" type="curve" smooth="yes"/>
      <point x="71" y="307" type="line" smooth="yes"/>
      <point x="87" y="382"/>
      <point x="116" y="438"/>
      <point x="158" y="473" type="curve" smooth="yes"/>
      <point x="199" y="508"/>
      <point x="249" y="526"/>
      <point x="308" y="526" type="curve" smooth="yes"/>
      <point x="358" y="526"/>
      <point x="398" y="514"/>
      <point x="428" y="489" type="curve" smooth="yes"/>
      <point x="458" y="464"/>
      <point x="473" y="426"/>
    </contour>
    <contour>
      <point x="403" y="370" type="curve" smooth="yes"/>
      <point x="403" y="403"/>
      <point x="394" y="427"/>
      <point x="377" y="442" type="curve" smooth="yes"/>
      <point x="359" y="456"/>
      <point x="334" y="463"/>
      <point x="302" y="463" type="curve" smooth="yes"/>
      <point x="263" y="463"/>
      <point x="229" y="452"/>
      <point x="201" y="429" type="curve" smooth="yes"/>
      <point x="173" y="406"/>
      <point x="153" y="366"/>
      <point x="141" y="309" type="curve" smooth="yes"/>
      <point x="139" y="298" type="line"/>
      <point x="393" y="298" type="line"/>
      <point x="397" y="316" type="line" smooth="yes"/>
      <point x="401" y="337"/>
      <point x="403" y="355"/>
    </contour>
  </outline>
</glyph>
<glyph name="g" format="2">
  <advance width="523"/>
  <unicode hex="0067"/>
  <outline>
    <contour>
      <point x="9" y="-26" type="curve"/>
      <point x="79" y="-26" type="line"/>
      <point x="81" y="-77"/>
      <point x="114" y="-102"/>
      <point x="179" y="-101" type="curve" smooth="yes"/>
      <point x="260" y="-101"/>
      <point x="310" y="-56"/>
      <point x="329" y="35" type="curve" smooth="yes"/>
      <point x="344" y="108" type="line"/>
      <point x="309" y="57"/>
      <point x="258" y="32"/>
      <point x="191" y="32" type="curve" smooth="yes"/>
      <point x="150" y="32"/>
      <point x="116" y="44"/>
      <point x="89" y="67" type="curve" smooth="yes"/>
      <point x="62" y="90"/>
      <point x="49" y="127"/>
      <point x="49" y="177" type="curve" smooth="yes"/>
      <point x="49" y="196"/>
      <point x="52" y="219"/>
      <point x="57" y="246" type="curve" smooth="yes"/>
      <point x="73" y="317" type="line" smooth="yes"/>
      <point x="89" y="391"/>
      <point x="116" y="445"/>
      <point x="155" y="479" type="curve" smooth="yes"/>
      <point x="193" y="512"/>
      <point x="238" y="529"/>
      <point x="289" y="529" type="curve" smooth="yes"/>
      <point x="321" y="529"/>
      <point x="348" y="522"/>
      <point x="370" y="509" type="curve" smooth="yes"/>
      <point x="392" y="495"/>
      <point x="408" y="476"/>
      <point x="418" y="451" type="curve"/>
      <point x="433" y="523" type="line"/>
      <point x="503" y="523" type="line"/>
      <point x="399" y="41" type="line" smooth="yes"/>
      <point x="386" y="-22"/>
      <point x="360" y="-72"/>
      <point x="321" y="-108" type="curve" smooth="yes"/>
      <point x="282" y="-144"/>
      <point x="233" y="-162"/>
      <point x="173" y="-162" type="curve" smooth="yes"/>
      <point x="119" y="-162"/>
      <point x="78" y="-150"/>
      <point x="51" y="-125" type="curve" smooth="yes"/>
      <point x="23" y="-101"/>
      <point x="9" y="-68"/>
    </contour>
    <contour>
      <point x="374" y="251" type="curve" smooth="yes"/>
      <point x="386" y="307" type="line" smooth="yes"/>
      <point x="390" y="326"/>
      <point x="392" y="343"/>
      <point x="392" y="358" type="curve" smooth="yes"/>
      <point x="392" y="391"/>
      <point x="384" y="418"/>
      <point x="367" y="438" type="curve" smooth="yes"/>
      <point x="350" y="457"/>
      <point x="324" y="467"/>
      <point x="291" y="467" type="curve" smooth="yes"/>
      <point x="256" y="467"/>
      <point x="226" y="455"/>
      <point x="201" y="432" type="curve" smooth="yes"/>
      <point x="175" y="409"/>
      <point x="155" y="369"/>
      <point x="142" y="312" type="curve" smooth="yes"/>
      <point x="128" y="248" type="line" smooth="yes"/>
      <point x="124" y="231"/>
      <point x="122" y="212"/>
      <point x="122" y="191" type="curve" smooth="yes"/>
      <point x="122" y="127"/>
      <point x="153" y="95"/>
      <point x="214" y="95" type="curve" smooth="yes"/>
      <point x="257" y="95"/>
      <point x="292" y="109"/>
      <point x="319" y="138" type="curve" smooth="yes"/>
      <point x="345" y="166"/>
      <point x="363" y="204"/>
    </contour>
  </outline>
</glyph>
<glyph name="l" format="2">
  <advance width="279"/>
  <unicode hex="006C"/>
  <outline>
    <contour>
      <point x="45" y="92" type="curve" smooth="yes"/>
      <point x="45" y="103"/>
      <point x="47" y="117"/>
      <point x="50" y="136" type="curve" smooth="yes"/>
      <point x="172" y="707" type="line"/>
      <point x="242" y="707" type="line"/>
      <point x="122" y="140" type="line" smooth="yes"/>
      <point x="119" y="129"/>
      <point x="118" y="119"/>
      <point x="118" y="109" type="curve" smooth="yes"/>
      <point x="118" y="93"/>
      <point x="122" y="81"/>
      <point x="131" y="74" type="curve" smooth="yes"/>
      <point x="139" y="67"/>
      <point x="152" y="63"/>
      <point x="170" y="63" type="curve" smooth="yes"/>
      <point x="212" y="63" type="line"/>
      <point x="199" y="0" type="line"/>
      <point x="150" y="0" type="line" smooth="yes"/>
      <point x="115" y="0"/>
      <point x="89" y="8"/>
      <point x="72" y="24" type="curve" smooth="yes"/>
      <point x="54" y="39"/>
      <point x="45" y="62"/>
    </contour>
  </outline>
</glyph>
<glyph name="m" format="2">
  <advance width="845"/>
  <unicode hex="006D"/>
  <outline>
    <contour>
      <point x="132" y="519" type="line"/>
      <point x="202" y="519" type="line"/>
      <point x="187" y="456" type="line"/>
      <point x="216" y="490"/>
      <point x="294" y="525"/>
      <point x="339" y="525" type="qcurve" smooth="yes"/>
      <point x="393" y="525"/>
      <point x="463" y="480"/>
      <point x="473" y="438" type="qcurve"/>
      <point x="540" y="525"/>
      <point x="646" y="525" type="qcurve" smooth="yes"/>
      <point x="716" y="525"/>
      <point x="793" y="456"/>
      <point x="793" y="393" type="qcurve" smooth="yes"/>
      <point x="793" y="368"/>
      <point x="786" y="341" type="qcurve" smooth="yes"/>
      <point x="714" y="0" type="line"/>
      <point x="644" y="0" type="line"/>
      <point x="715" y="331" type="line" smooth="yes"/>
      <point x="720" y="357"/>
      <point x="720" y="372" type="qcurve" smooth="yes"/>
      <point x="720" y="417"/>
      <point x="669" y="463"/>
      <point x="623" y="463" type="qcurve" smooth="yes"/>
      <point x="566" y="463"/>
      <point x="487" y="394"/>
      <point x="474" y="334" type="qcurve" smooth="yes"/>
      <point x="403" y="0" type="line"/>
      <point x="333" y="0" type="line"/>
      <point x="403" y="331" type="line" smooth="yes"/>
      <point x="408" y="355"/>
      <point x="409" y="372" type="qcurve" smooth="yes"/>
      <point x="409" y="417"/>
      <point x="357" y="463"/>
      <point x="311" y="463" type="qcurve" smooth="yes"/>
      <point x="255" y="463"/>
      <point x="176" y="394"/>
      <point x="163" y="331" type="qcurve" smooth="yes"/>
      <point x="92" y="0" type="line"/>
      <point x="23" y="0" type="line"/>
    </contour>
  </outline>
</glyph>
<glyph name="n" format="2">
  <advance width="535"/>
  <unicode hex="006E"/>
  <anchor x="318" y="519" name="top"/>
  <outline>
    <contour>
      <point x="132" y="519" type="line"/>
      <point x="202" y="519" type="line"/>
      <point x="187" y="456" type="line"/>
      <point x="216" y="491"/>
      <point x="295" y="525"/>
      <point x="340" y="525" type="qcurve" smooth="yes"/>
      <point x="409" y="525"/>
      <point x="482" y="457"/>
      <point x="482" y="394" type="qcurve" smooth="yes"/>
      <point x="482" y="368"/>
      <point x="476" y="341" type="qcurve" smooth="yes"/>
      <point x="403" y="0" type="line"/>
      <point x="334" y="0" type="line"/>
      <point x="403" y="330" type="line" smooth="yes"/>
      <point x="408" y="358"/>
      <point x="409" y="374" type="qcurve" smooth="yes"/>
      <point x="409" y="418"/>
      <point x="359" y="463"/>
      <point x="314" y="463" type="qcurve" smooth="yes"/>
      <point x="258" y="463"/>
      <point x="176" y="394"/>
      <point x="163" y="331" type="qcurve" smooth="yes"/>
      <point x="92" y="0" type="line"/>
      <point x="23" y="0" type="line"/>
    </contour>
  </outline>
</glyph>
<glyph name="o" format="2">
  <advance width="517"/>
  <unicode hex="006F"/>
  <anchor x="309" y="519" name="top"/>
  <outline>
    <contour>
      <point x="42" y="65"/>
      <point x="42" y="141" type="qcurve" smooth="yes"/>
      <point x="42" y="172"/>
      <point x="49" y="207" type="qcurve" smooth="yes"/>
      <point x="72" y="313" type="line" smooth="yes"/>
      <point x="96" y="424"/>
      <point x="221" y="526"/>
      <point x="311" y="526" type="qcurve" smooth="yes"/>
      <point x="386" y="526"/>
      <point x="476" y="455"/>
      <point x="476" y="380" type="qcurve" smooth="yes"/>
      <point x="476" y="352"/>
      <point x="468" y="313" type="qcurve" smooth="yes"/>
      <point x="445" y="207" type="line" smooth="yes"/>
      <point x="421" y="95"/>
      <point x="297" y="-6"/>
      <point x="209" y="-6" type="qcurve" smooth="yes"/>
      <point x="132" y="-6"/>
    </contour>
    <contour>
      <point x="358" y="125"/>
      <point x="376" y="211" type="qcurve" smooth="yes"/>
      <point x="396" y="309" type="line" smooth="yes"/>
      <point x="403" y="341"/>
      <point x="403" y="367" type="qcurve" smooth="yes"/>
      <point x="403" y="463"/>
      <point x="301" y="463" type="qcurve" smooth="yes"/>
      <point x="241" y="463"/>
      <point x="159" y="394"/>
      <point x="140" y="309" type="qcurve" smooth="yes"/>
      <point x="120" y="210" type="line" smooth="yes"/>
      <point x="114" y="178"/>
      <point x="114" y="155" type="qcurve" smooth="yes"/>
      <point x="114" y="101"/>
      <point x="170" y="56"/>
      <point x="219" y="56" type="qcurve" smooth="yes"/>
      <point x="278" y="56"/>
    </contour>
  </outline>
</glyph>
<glyph name="r" format="2">
  <advance width="346"/>
  <unicode hex="0072"/>
  <outline>
    <contour>
      <point x="132" y="519" type="line"/>
      <point x="202" y="519" type="line"/>
      <point x="186" y="450" type="line"/>
      <point x="206" y="476"/>
      <point x="229" y="495"/>
      <point x="256" y="508" type="curve" smooth="yes"/>
      <point x="282" y="520"/>
      <point x="310" y="526"/>
      <point x="339" y="526" type="curve" smooth="yes"/>
      <point x="352" y="526"/>
      <point x="364" y="525"/>
      <point x="377" y="523" type="curve"/>
      <point x="361" y="454" type="line"/>
      <point x="346" y="459"/>
      <point x="329" y="462"/>
      <point x="310" y="462" type="curve" smooth="yes"/>
      <point x="274" y="462"/>
      <point x="242" y="449"/>
      <point x="215" y="424" type="curve" smooth="yes"/>
      <point x="188" y="399"/>
      <point x="170" y="365"/>
      <point x="161" y="322" type="curve" smooth="yes"/>
      <point x="92" y="0" type="line"/>
      <point x="23" y="0" type="line"/>
    </contour>
  </outline>
</glyph>
<glyph name="s" format="2">
  <advance width="477"/>
  <unicode hex="0073"/>
  <anchor x="262" y="519" name="top"/>
  <outline>
    <contour>
      <point x="25" y="150" type="curve"/>
      <point x="90" y="150" type="line"/>
      <point x="90" y="118"/>
      <point x="99" y="94"/>
      <point x="118" y="78" type="curve" smooth="yes"/>
      <point x="137" y="61"/>
      <point x="167" y="53"/>
      <point x="208" y="53" type="curve" smooth="yes"/>
      <point x="246" y="53"/>
      <point x="278" y="63"/>
      <point x="303" y="82" type="curve" smooth="yes"/>
      <point x="328" y="101"/>
      <point x="341" y="127"/>
      <point x="341" y="160" type="curve" smooth="yes"/>
      <point x="341" y="181"/>
      <point x="335" y="197"/>
      <point x="322" y="207" type="curve" smooth="yes"/>
      <point x="309" y="217"/>
      <point x="288" y="224"/>
      <point x="261" y="229" type="curve" smooth="yes"/>
      <point x="201" y="241" type="line" smooth="yes"/>
      <point x="158" y="249"/>
      <point x="126" y="262"/>
      <point x="107" y="279" type="curve" smooth="yes"/>
      <point x="87" y="296"/>
      <point x="77" y="320"/>
      <point x="77" y="353" type="curve" smooth="yes"/>
      <point x="77" y="386"/>
      <point x="85" y="416"/>
      <point x="102" y="443" type="curve" smooth="yes"/>
      <point x="119" y="469"/>
      <point x="142" y="489"/>
      <point x="173" y="504" type="curve" smooth="yes"/>
      <point x="203" y="519"/>
      <point x="239" y="526"/>
      <point x="280" y="526" type="curve" smooth="yes"/>
      <point x="339" y="526"/>
      <point x="382" y="513"/>
      <point x="410" y="488" type="curve" smooth="yes"/>
      <point x="437" y="462"/>
      <point x="451" y="425"/>
      <point x="451" y="378" type="curve"/>
      <point x="383" y="378" type="line"/>
      <point x="383" y="409"/>
      <point x="374" y="432"/>
      <point x="357" y="447" type="curve" smooth="yes"/>
      <point x="339" y="462"/>
      <point x="310" y="469"/>
      <point x="271" y="469" type="curve" smooth="yes"/>
      <point x="234" y="469"/>
      <point x="204" y="459"/>
      <point x="181" y="440" type="curve" smooth="yes"/>
      <point x="158" y="421"/>
      <point x="146" y="396"/>
      <point x="146" y="367" type="curve" smooth="yes"/>
      <point x="146" y="348"/>
      <point x="152" y="333"/>
      <point x="165" y="323" type="curve" smooth="yes"/>
      <point x="177" y="313"/>
      <point x="196" y="306"/>
      <point x="222" y="301" type="curve" smooth="yes"/>
      <point x="287" y="289" type="line" smooth="yes"/>
      <point x="331" y="281"/>
      <point x="363" y="268"/>
      <point x="383" y="249" type="curve" smooth="yes"/>
      <point x="402" y="230"/>
      <point x="412" y="203"/>
      <point x="412" y="170" type="curve" smooth="yes"/>
      <point x="412" y="117"/>
      <point x="393" y="74"/>
      <point x="354" y="42" type="curve" smooth="yes"/>
      <point x="315" y="10"/>
      <point x="263" y="-6"/>
      <point x="200" y="-6" type="curve" smooth="yes"/>
      <point x="142" y="-6"/>
      <point x="98" y="8"/>
      <point x="69" y="35" type="curve" smooth="yes"/>
      <point x="40" y="62"/>
      <point x="25" y="100"/>
    </contour>
  </outline>
</glyph>
<glyph name="section" format="2">
  <advance width="523"/>
  <unicode hex="00A7"/>
  <outline>
    <contour>
      <point x="33" y="-113"/>
      <point x="33" y="-56" type="qcurve" smooth="yes"/>
      <point x="33" y="-33"/>
      <point x="39" y="-4" type="qcurve"/>
      <point x="110" y="-4" type="line"/>
      <point x="106" y="-21"/>
      <point x="105" y="-39" type="qcurve" smooth="yes"/>
      <point x="105" y="-107"/>
      <point x="181" y="-106" type="qcurve" smooth="yes"/>
      <point x="226" y="-106"/>
      <point x="285" y="-59"/>
      <point x="293" y="-16" type="qcurve" smooth="yes"/>
      <point x="296" y="-1"/>
      <point x="296" y="11" type="qcurve" smooth="yes"/>
      <point x="296" y="44"/>
      <point x="246" y="84"/>
      <point x="188" y="98" type="qcurve" smooth="yes"/>
      <point x="80" y="125"/>
      <point x="81" y="227" type="qcurve" smooth="yes"/>
      <point x="81" y="253"/>
      <point x="87" y="282" type="qcurve" smooth="yes"/>
      <point x="99" y="341"/>
      <point x="170" y="428"/>
      <point x="223" y="445" type="qcurve"/>
      <point x="168" y="479"/>
      <point x="168" y="541" type="qcurve" smooth="yes"/>
      <point x="168" y="595"/>
      <point x="217" y="682"/>
      <point x="304" y="731"/>
      <point x="360" y="731" type="qcurve" smooth="yes"/>
      <point x="426" y="731"/>
      <point x="494" y="672"/>
      <point x="494" y="618" type="qcurve" smooth="yes"/>
      <point x="494" y="591"/>
      <point x="488" y="570" type="qcurve"/>
      <point x="419" y="570" type="line"/>
      <point x="423" y="593"/>
      <point x="423" y="602" type="qcurve" smooth="yes"/>
      <point x="423" y="665"/>
      <point x="352" y="666" type="qcurve" smooth="yes"/>
      <point x="303" y="666"/>
      <point x="244" y="604"/>
      <point x="244" y="551" type="qcurve" smooth="yes"/>
      <point x="244" y="519"/>
      <point x="289" y="482"/>
      <point x="345" y="466" type="qcurve" smooth="yes"/>
      <point x="403" y="450"/>
      <point x="453" y="388"/>
      <point x="453" y="337" type="qcurve" smooth="yes"/>
      <point x="453" y="312"/>
      <point x="446" y="282" type="qcurve" smooth="yes"/>
      <point x="435" y="224"/>
      <point x="364" y="136"/>
      <point x="312" y="120" type="qcurve"/>
      <point x="371" y="88"/>
      <point x="372" y="25" type="qcurve" smooth="yes"/>
      <point x="372" y="8"/>
      <point x="367" y="-18" type="qcurve" smooth="yes"/>
      <point x="353" y="-89"/>
      <point x="252" y="-172"/>
      <point x="178" y="-172" type="qcurve" smooth="yes"/>
      <point x="110" y="-172"/>
    </contour>
    <contour>
      <point x="360" y="225"/>
      <point x="373" y="282" type="qcurve" smooth="yes"/>
      <point x="377" y="301"/>
      <point x="377" y="319" type="qcurve" smooth="yes"/>
      <point x="377" y="359"/>
      <point x="334" y="401"/>
      <point x="293" y="401" type="qcurve" smooth="yes"/>
      <point x="243" y="401"/>
      <point x="174" y="339"/>
      <point x="161" y="282" type="qcurve" smooth="yes"/>
      <point x="157" y="265"/>
      <point x="157" y="245" type="qcurve" smooth="yes"/>
      <point x="157" y="206"/>
      <point x="201" y="163"/>
      <point x="242" y="163" type="qcurve" smooth="yes"/>
      <point x="291" y="163"/>
    </contour>
  </outline>
</glyph>
<glyph name="registered" format="2">
  <advance width="559"/>
  <unicode hex="00AE"/>
  <outline>
    <contour>
      <point x="140" y="510" type="curve" smooth="yes"/>
      <point x="140" y="547"/>
      <point x="148" y="580"/>
      <point x="165" y="610" type="curve" smooth="yes"/>
      <point x="182" y="639"/>
      <point x="205" y="663"/>
      <point x="235" y="680" type="curve" smooth="yes"/>
      <point x="264" y="697"/>
      <point x="297" y="706"/>
      <point x="333" y="706" type="curve" smooth="yes"/>
      <point x="370" y="706"/>
      <point x="403" y="697"/>
      <point x="432" y="680" type="curve" smooth="yes"/>
      <point x="461" y="663"/>
      <point x="483" y="639"/>
      <point x="500" y="610" type="curve" smooth="yes"/>
      <point x="517" y="580"/>
      <point x="525" y="547"/>
      <point x="525" y="510" type="curve" smooth="yes"/>
      <point x="525" y="473"/>
      <point x="517" y="439"/>
      <point x="501" y="410" type="curve" smooth="yes"/>
      <point x="484" y="380"/>
      <point x="461" y="356"/>
      <point x="432" y="339" type="curve" smooth="yes"/>
      <point x="403" y="322"/>
      <point x="370" y="313"/>
      <point x="333" y="313" type="curve" smooth="yes"/>
      <point x="296" y="313"/>
      <point x="263" y="322"/>
      <point x="234" y="339" type="curve" smooth="yes"/>
      <point x="205" y="356"/>
      <point x="182" y="380"/>
      <point x="165" y="410" type="curve" smooth="yes"/>
      <point x="148" y="440"/>
      <point x="140" y="473"/>
    </contour>
    <contour>
      <point x="492" y="510" type="curve" smooth="yes"/>
      <point x="492" y="558"/>
      <point x="477" y="597"/>
      <point x="447" y="628" type="curve" smooth="yes"/>
      <point x="417" y="659"/>
      <point x="379" y="674"/>
      <point x="333" y="674" type="curve" smooth="yes"/>
      <point x="286" y="674"/>
      <point x="248" y="659"/>
      <point x="219" y="628" type="curve" smooth="yes"/>
      <point x="189" y="597"/>
      <point x="174" y="558"/>
      <point x="174" y="510" type="curve" smooth="yes"/>
      <point x="174" y="462"/>
      <point x="189" y="423"/>
      <point x="219" y="392" type="curve" smooth="yes"/>
      <point x="248" y="361"/>
      <point x="286" y="345"/>
      <point x="333" y="345" type="curve" smooth="yes"/>
      <point x="379" y="345"/>
      <point x="417" y="361"/>
      <point x="447" y="392" type="curve" smooth="yes"/>
      <point x="477" y="423"/>
      <point x="492" y="462"/>
    </contour>
    <contour>
      <point x="261" y="621" type="line"/>
      <point x="344" y="621" type="line" smooth="yes"/>
      <point x="367" y="621"/>
      <point x="385" y="615"/>
      <point x="398" y="604" type="curve" smooth="yes"/>
      <point x="411" y="593"/>
      <point x="417" y="577"/>
      <point x="417" y="556" type="curve" smooth="yes"/>
      <point x="417" y="541"/>
      <point x="413" y="529"/>
      <point x="406" y="519" type="curve" smooth="yes"/>
      <point x="399" y="508"/>
      <point x="389" y="501"/>
      <point x="377" y="496" type="curve"/>
      <point x="422" y="401" type="line"/>
      <point x="382" y="401" type="line"/>
      <point x="339" y="492" type="line"/>
      <point x="298" y="492" type="line"/>
      <point x="298" y="401" type="line"/>
      <point x="261" y="401" type="line"/>
    </contour>
    <contour>
      <point x="344" y="524" type="line" smooth="yes"/>
      <point x="368" y="524"/>
      <point x="380" y="535"/>
      <point x="380" y="556" type="curve" smooth="yes"/>
      <point x="380" y="577"/>
      <point x="368" y="588"/>
      <point x="344" y="588" type="curve" smooth="yes"/>
      <point x="298" y="588" type="line"/>
      <point x="298" y="524" type="line"/>
    </contour>
  </outline>
</glyph>
<glyph name="mu" format="2">
  <advance width="528"/>
  <unicode hex="00B5"/>
  <outline>
    <contour>
      <point x="132" y="519" type="line"/>
      <point x="203" y="519" type="line"/>
      <point x="131" y="182" type="line" smooth="yes"/>
      <point x="128" y="165"/>
      <point x="126" y="149"/>
      <point x="126" y="136" type="curve" smooth="yes"/>
      <point x="126" y="110"/>
      <point x="134" y="90"/>
      <point x="151" y="76" type="curve" smooth="yes"/>
      <point x="167" y="62"/>
      <point x="189" y="55"/>
      <point x="218" y="55" type="curve" smooth="yes"/>
      <point x="252" y="55"/>
      <point x="283" y="66"/>
      <point x="311" y="89" type="curve" smooth="yes"/>
      <point x="338" y="112"/>
      <point x="356" y="143"/>
      <point x="365" y="182" type="curve" smooth="yes"/>
      <point x="436" y="519" type="line"/>
      <point x="507" y="519" type="line"/>
      <point x="396" y="0" type="line"/>
      <point x="327" y="0" type="line"/>
      <point x="340" y="61" type="line"/>
      <point x="301" y="14"/>
      <point x="253" y="-9"/>
      <point x="194" y="-8" type="curve" smooth="yes"/>
      <point x="149" y="-8"/>
      <point x="118" y="5"/>
      <point x="99" y="32" type="curve"/>
      <point x="59" y="-156" type="line"/>
      <point x="-10" y="-156" type="line"/>
    </contour>
  </outline>
</glyph>
<glyph name="ordmasculine" format="2">
  <advance width="337"/>
  <unicode hex="00BA"/>
  <outline>
    <contour>
      <point x="102" y="482"/>
      <point x="102" y="530" type="qcurve" smooth="yes"/>
      <point x="102" y="546"/>
      <point x="108" y="570" type="qcurve" smooth="yes"/>
      <point x="121" y="632" type="line" smooth="yes"/>
      <point x="136" y="702"/>
      <point x="210" y="766"/>
      <point x="269" y="766" type="qcurve" smooth="yes"/>
      <point x="320" y="766"/>
      <point x="379" y="719"/>
      <point x="379" y="671" type="qcurve" smooth="yes"/>
      <point x="379" y="653"/>
      <point x="375" y="633" type="qcurve" smooth="yes"/>
      <point x="362" y="570" type="line" smooth="yes"/>
      <point x="336" y="436"/>
      <point x="215" y="436" type="qcurve" smooth="yes"/>
      <point x="164" y="436"/>
    </contour>
    <contour>
      <point x="287" y="530"/>
      <point x="296" y="571" type="qcurve" smooth="yes"/>
      <point x="309" y="632" type="line" smooth="yes"/>
      <point x="312" y="647"/>
      <point x="312" y="658" type="qcurve" smooth="yes"/>
      <point x="312" y="683"/>
      <point x="285" y="707"/>
      <point x="261" y="707" type="qcurve" smooth="yes"/>
      <point x="232" y="707"/>
      <point x="196" y="672"/>
      <point x="186" y="632" type="qcurve" smooth="yes"/>
      <point x="173" y="569" type="line" smooth="yes"/>
      <point x="170" y="556"/>
      <point x="170" y="544" type="qcurve" smooth="yes"/>
      <point x="170" y="496"/>
      <point x="223" y="496" type="qcurve" smooth="yes"/>
      <point x="251" y="496"/>
    </contour>
  </outline>
</glyph>
<glyph name="Aring" format="2">
  <advance width="583"/>
  <unicode hex="00C5"/>
  <anchor x="370" y="692" name="Anchor-0"/>
  <outline>
    <contour>
      <point x="423" y="170" type="line"/>
      <point x="123" y="170" type="line"/>
      <point x="28" y="0" type="line"/>
      <point x="-51" y="0" type="line"/>
      <point x="354" y="706" type="line"/>
      <point x="330" y="717"/>
      <point x="304" y="762"/>
      <point x="304" y="790" type="qcurve" smooth="yes"/>
      <point x="304" y="831"/>
      <point x="356" y="884"/>
      <point x="397" y="884" type="qcurve" smooth="yes"/>
      <point x="437" y="884"/>
      <point x="490" y="830"/>
      <point x="490" y="790" type="qcurve" smooth="yes"/>
      <point x="490" y="756"/>
      <point x="452" y="707"/>
      <point x="420" y="698" type="qcurve"/>
      <point x="524" y="0" type="line"/>
      <point x="446" y="0" type="line"/>
    </contour>
    <contour>
      <point x="344" y="813"/>
      <point x="344" y="790" type="qcurve" smooth="yes"/>
      <point x="344" y="766"/>
      <point x="375" y="735"/>
      <point x="397" y="735" type="qcurve" smooth="yes"/>
      <point x="420" y="735"/>
      <point x="451" y="766"/>
      <point x="451" y="790" type="qcurve" smooth="yes"/>
      <point x="451" y="814"/>
      <point x="420" y="845"/>
      <point x="397" y="845" type="qcurve" smooth="yes"/>
      <point x="375" y="845"/>
    </contour>
    <contour>
      <point x="415" y="233" type="line"/>
      <point x="365" y="602" type="line"/>
      <point x="159" y="233" type="line"/>
    </contour>
    <contour>
      <point x="385" y="707" type="move" smooth="yes"/>
    </contour>
  </outline>
</glyph>
<glyph name="Ccedilla" format="2">
  <advance width="624"/>
  <unicode hex="00C7"/>
  <outline>
    <contour>
      <point x="532" y="497" type="line"/>
      <point x="533" y="503"/>
      <point x="534" y="511"/>
      <point x="535" y="522" type="curve" smooth="yes"/>
      <point x="535" y="562"/>
      <point x="523" y="593"/>
      <point x="500" y="615" type="curve" smooth="yes"/>
      <point x="476" y="637"/>
      <point x="441" y="648"/>
      <point x="395" y="648" type="curve" smooth="yes"/>
      <point x="339" y="648"/>
      <point x="294" y="632"/>
      <point x="259" y="600" type="curve" smooth="yes"/>
      <point x="224" y="568"/>
      <point x="198" y="515"/>
      <point x="182" y="442" type="curve" smooth="yes"/>
      <point x="142" y="258" type="line" smooth="yes"/>
      <point x="137" y="232"/>
      <point x="134" y="210"/>
      <point x="134" y="193" type="curve" smooth="yes"/>
      <point x="134" y="148"/>
      <point x="147" y="114"/>
      <point x="173" y="93" type="curve" smooth="yes"/>
      <point x="199" y="71"/>
      <point x="235" y="60"/>
      <point x="282" y="60" type="curve" smooth="yes"/>
      <point x="333" y="60"/>
      <point x="374" y="73"/>
      <point x="406" y="99" type="curve" smooth="yes"/>
      <point x="438" y="125"/>
      <point x="460" y="161"/>
      <point x="471" y="208" type="curve" smooth="yes"/>
      <point x="472" y="212" type="line"/>
      <point x="545" y="212" type="line"/>
      <point x="544" y="208" type="line" smooth="yes"/>
      <point x="528" y="147"/>
      <point x="499" y="97"/>
      <point x="457" y="59" type="curve" smooth="yes"/>
      <point x="415" y="20"/>
      <point x="362" y="-2"/>
      <point x="299" y="-7" type="curve"/>
      <point x="221" y="-154" type="line"/>
      <point x="147" y="-154" type="line"/>
      <point x="237" y="-7" type="line"/>
      <point x="182" y="-2"/>
      <point x="139" y="15"/>
      <point x="107" y="46" type="curve" smooth="yes"/>
      <point x="75" y="76"/>
      <point x="59" y="120"/>
      <point x="59" y="179" type="curve" smooth="yes"/>
      <point x="59" y="204"/>
      <point x="62" y="231"/>
      <point x="69" y="262" type="curve" smooth="yes"/>
      <point x="108" y="445" type="line" smooth="yes"/>
      <point x="128" y="540"/>
      <point x="164" y="609"/>
      <point x="215" y="652" type="curve" smooth="yes"/>
      <point x="266" y="695"/>
      <point x="329" y="716"/>
      <point x="404" y="716" type="curve" smooth="yes"/>
      <point x="470" y="716"/>
      <point x="521" y="700"/>
      <point x="557" y="667" type="curve" smooth="yes"/>
      <point x="592" y="634"/>
      <point x="610" y="588"/>
      <point x="610" y="530" type="curve" smooth="yes"/>
      <point x="610" y="519"/>
      <point x="609" y="508"/>
      <point x="607" y="497" type="curve"/>
    </contour>
  </outline>
</glyph>
<glyph name="Oslash" format="2">
  <advance width="623"/>
  <unicode hex="00D8"/>
  <anchor x="396" y="707" name="top"/>
  <outline>
    <contour>
      <point x="581" y="632" type="line"/>
      <point x="606" y="589"/>
      <point x="605" y="528" type="qcurve" smooth="yes"/>
      <point x="605" y="491"/>
      <point x="596" y="445" type="qcurve" smooth="yes"/>
      <point x="557" y="262" type="line" smooth="yes"/>
      <point x="500" y="-8"/>
      <point x="268" y="-8" type="qcurve" smooth="yes"/>
      <point x="168" y="-8"/>
      <point x="115" y="39" type="qcurve"/>
      <point x="68" y="-20" type="line"/>
      <point x="8" y="-20" type="line"/>
      <point x="84" y="76" type="line"/>
      <point x="59" y="119"/>
      <point x="59" y="179" type="qcurve" smooth="yes"/>
      <point x="59" y="216"/>
      <point x="69" y="262" type="qcurve" smooth="yes"/>
      <point x="108" y="445" type="line" smooth="yes"/>
      <point x="165" y="715"/>
      <point x="398" y="716" type="qcurve" smooth="yes"/>
      <point x="496" y="716"/>
      <point x="550" y="669" type="qcurve"/>
      <point x="596" y="727" type="line"/>
      <point x="655" y="727" type="line"/>
    </contour>
    <contour>
      <point x="139" y="146" type="qcurve"/>
      <point x="502" y="607" type="line"/>
      <point x="467" y="648"/>
      <point x="389" y="648" type="qcurve" smooth="yes"/>
      <point x="306" y="648"/>
      <point x="206" y="552"/>
      <point x="182" y="442" type="qcurve" smooth="yes"/>
      <point x="142" y="258" type="line" smooth="yes"/>
      <point x="134" y="219"/>
      <point x="134" y="190" type="qcurve" smooth="yes"/>
      <point x="134" y="169"/>
    </contour>
    <contour>
      <point x="524" y="560" type="qcurve"/>
      <point x="163" y="100" type="line"/>
      <point x="199" y="60"/>
      <point x="279" y="60" type="qcurve" smooth="yes"/>
      <point x="359" y="60"/>
      <point x="459" y="155"/>
      <point x="481" y="258" type="qcurve" smooth="yes"/>
      <point x="521" y="442" type="line" smooth="yes"/>
      <point x="529" y="479"/>
      <point x="529" y="515" type="qcurve" smooth="yes"/>
      <point x="529" y="537"/>
    </contour>
  </outline>
</glyph>
<glyph name="dcroat" format="2">
  <advance width="523"/>
  <unicode hex="0111"/>
  <outline>
    <contour>
      <point x="334.03128144797984" y="635" type="line"/>
      <point x="600.0312814479798" y="635" type="line"/>
      <point x="590.8831670519984" y="591" type="line"/>
      <point x="324.88316705199844" y="591" type="line"/>
    </contour>
    <component base="d"/>
  </outline>
</glyph>
<glyph name="eogonek" format="2">
  <advance width="515"/>
  <unicode hex="0119"/>
  <outline>
    <contour>
      <point x="287" y="17" type="line"/>
      <point x="386" y="69" type="line"/>
      <point x="229" y="-105" type="line"/>
      <point x="254" y="-152"/>
      <point x="280" y="-155"/>
      <point x="336" y="-155" type="curve"/>
      <point x="323" y="-217" type="line"/>
      <point x="246" y="-216"/>
      <point x="218" y="-199"/>
      <point x="188" y="-166" type="curve" smooth="yes"/>
      <point x="173" y="-149"/>
      <point x="165" y="-127"/>
      <point x="161" y="-100" type="curve"/>
    </contour>
    <component base="e"/>
  </outline>
</glyph>
<glyph name="dotlessi" format="2">
  <advance width="223"/>
  <unicode hex="0131"/>
  <anchor x="167" y="519" name="top"/>
  <outline>
    <contour>
      <point x="132" y="519" type="line"/>
      <point x="202" y="519" type="line"/>
      <point x="91" y="0" type="line"/>
      <point x="23" y="0" type="line"/>
    </contour>
  </outline>
</glyph>
<glyph name="IJ" format="2">
  <advance width="650"/>
  <unicode hex="0132"/>
  <outline>
    <contour>
      <point x="206" y="24" type="curve" smooth="yes"/>
      <point x="173" y="44"/>
      <point x="150" y="72"/>
      <point x="137" y="108" type="curve" smooth="yes"/>
      <point x="131" y="124"/>
      <point x="127" y="141"/>
      <point x="126" y="159" type="curve"/>
      <point x="205" y="159" type="line"/>
      <point x="208" y="140"/>
      <point x="215" y="123"/>
      <point x="226" y="108" type="curve" smooth="yes"/>
      <point x="249" y="76"/>
      <point x="288" y="60"/>
      <point x="339" y="60" type="curve" smooth="yes"/>
      <point x="390" y="60"/>
      <point x="432" y="76"/>
      <point x="470" y="108" type="curve" smooth="yes"/>
      <point x="508" y="140"/>
      <point x="533" y="183"/>
      <point x="544" y="237" type="curve" smooth="yes"/>
      <point x="644" y="707" type="line"/>
      <point x="718" y="707" type="line"/>
      <point x="617" y="230" type="line" smooth="yes"/>
      <point x="607" y="184"/>
      <point x="588" y="143"/>
      <point x="560" y="107" type="curve" smooth="yes"/>
      <point x="531" y="71"/>
      <point x="497" y="44"/>
      <point x="456" y="24" type="curve" smooth="yes"/>
      <point x="415" y="4"/>
      <point x="371" y="-6"/>
      <point x="325" y="-6" type="curve" smooth="yes"/>
      <point x="279" y="-6"/>
      <point x="239" y="4"/>
    </contour>
    <contour>
      <point x="232" y="707" type="line"/>
      <point x="308" y="707" type="line"/>
      <point x="211" y="249" type="line"/>
      <point x="135" y="249" type="line"/>
    </contour>
  </outline>
</glyph>
<glyph name="ij" format="2">
  <advance width="449"/>
  <unicode hex="0133"/>
  <outline>
    <contour>
      <point x="499" y="707" type="line"/>
      <point x="569" y="707" type="line"/>
      <point x="550" y="614" type="line"/>
      <point x="480" y="614" type="line"/>
    </contour>
    <contour>
      <point x="187" y="707" type="line"/>
      <point x="256" y="707" type="line"/>
      <point x="237" y="615" type="line"/>
      <point x="168" y="615" type="line"/>
    </contour>
    <contour>
      <point x="372" y="108" type="line"/>
      <point x="338" y="64"/>
      <point x="289" y="32"/>
      <point x="216" y="32" type="curve" smooth="yes"/>
      <point x="165" y="32"/>
      <point x="126" y="49"/>
      <point x="101" y="83" type="curve" smooth="yes"/>
      <point x="75" y="117"/>
      <point x="70" y="172"/>
      <point x="85" y="246" type="curve" smooth="yes"/>
      <point x="143" y="519" type="line"/>
      <point x="214" y="519" type="line"/>
      <point x="157" y="250" type="line" smooth="yes"/>
      <point x="135" y="147"/>
      <point x="163" y="95"/>
      <point x="239" y="95" type="curve" smooth="yes"/>
      <point x="333" y="95"/>
      <point x="385" y="169"/>
      <point x="402" y="251" type="curve" smooth="yes"/>
      <point x="459" y="519" type="line"/>
      <point x="529" y="519" type="line"/>
      <point x="428" y="41" type="line" smooth="yes"/>
      <point x="403" y="-74"/>
      <point x="325" y="-162"/>
      <point x="193" y="-162" type="curve" smooth="yes"/>
      <point x="97" y="-162"/>
      <point x="24" y="-120"/>
      <point x="37" y="-26" type="curve"/>
      <point x="106" y="-26" type="line"/>
      <point x="102" y="-77"/>
      <point x="151" y="-101"/>
      <point x="206" y="-101" type="curve" smooth="yes"/>
      <point x="287" y="-101"/>
      <point x="337" y="-56"/>
      <point x="356" y="35" type="curve" smooth="yes"/>
    </contour>
  </outline>
</glyph>
<glyph name="Lslash" format="2">
  <advance width="541"/>
  <unicode hex="0141"/>
  <outline>
    <component base="L" xOffset="0.0" yOffset="0"/>
    <contour>
      <point x="67.69733265674083" y="340" type="line"/>
      <point x="80.75621072417087" y="398" type="line"/>
      <point x="281.31002908141403" y="468" type="line"/>
      <point x="269.251151013984" y="410" type="line"/>
    </contour>
  </outline>
</glyph>
<glyph name="lslash" format="2">
  <advance width="279"/>
  <unicode hex="0142"/>
  <outline>
    <component base="l" xOffset="0.0" yOffset="0"/>
    <contour>
      <point x="39.77644956491842" y="350" type="line"/>
      <point x="52.835327632348466" y="408" type="line"/>
      <point x="253.3891459895916" y="478" type="line"/>
      <point x="241.33026792216157" y="420" type="line"/>
    </contour>
  </outline>
</glyph>
<glyph name="oe" format="2">
  <advance width="842"/>
  <unicode hex="0153"/>
  <anchor x="824" y="519" name="top"/>
  <outline>
    <contour>
      <point x="800" y="452"/>
      <point x="800" y="375" type="qcurve" smooth="yes"/>
      <point x="800" y="346"/>
      <point x="792" y="305" type="qcurve" smooth="yes"/>
      <point x="779" y="246" type="line"/>
      <point x="455" y="246" type="line"/>
      <point x="449" y="214" type="line" smooth="yes"/>
      <point x="442" y="182"/>
      <point x="441" y="155" type="qcurve" smooth="yes"/>
      <point x="441" y="101"/>
      <point x="500" y="56"/>
      <point x="551" y="56" type="qcurve" smooth="yes"/>
      <point x="604" y="56"/>
      <point x="676" y="110"/>
      <point x="689" y="160" type="qcurve"/>
      <point x="757" y="160" type="line"/>
      <point x="741" y="80"/>
      <point x="629" y="-6"/>
      <point x="542" y="-6" type="qcurve" smooth="yes"/>
      <point x="488" y="-6"/>
      <point x="407" y="33"/>
      <point x="386" y="73" type="qcurve"/>
      <point x="323" y="-6"/>
      <point x="209" y="-6" type="qcurve" smooth="yes"/>
      <point x="132" y="-6"/>
      <point x="42" y="65"/>
      <point x="42" y="141" type="qcurve" smooth="yes"/>
      <point x="42" y="172"/>
      <point x="49" y="207" type="qcurve" smooth="yes"/>
      <point x="72" y="313" type="line" smooth="yes"/>
      <point x="96" y="424"/>
      <point x="221" y="526"/>
      <point x="311" y="526" type="qcurve" smooth="yes"/>
      <point x="364" y="526"/>
      <point x="443" y="489"/>
      <point x="462" y="451" type="qcurve"/>
      <point x="527" y="527"/>
      <point x="635" y="526" type="qcurve" smooth="yes"/>
      <point x="710" y="526"/>
    </contour>
    <contour>
      <point x="358" y="125"/>
      <point x="376" y="211" type="qcurve" smooth="yes"/>
      <point x="396" y="309" type="line" smooth="yes"/>
      <point x="403" y="341"/>
      <point x="403" y="367" type="qcurve" smooth="yes"/>
      <point x="403" y="463"/>
      <point x="301" y="463" type="qcurve" smooth="yes"/>
      <point x="241" y="463"/>
      <point x="159" y="394"/>
      <point x="140" y="309" type="qcurve" smooth="yes"/>
      <point x="120" y="210" type="line" smooth="yes"/>
      <point x="114" y="178"/>
      <point x="114" y="155" type="qcurve" smooth="yes"/>
      <point x="114" y="101"/>
      <point x="170" y="56"/>
      <point x="219" y="56" type="qcurve" smooth="yes"/>
      <point x="278" y="56"/>
    </contour>
    <contour>
      <point x="730" y="370" type="qcurve" smooth="yes"/>
      <point x="730" y="420"/>
      <point x="677" y="463"/>
      <point x="629" y="463" type="qcurve" smooth="yes"/>
      <point x="570" y="463"/>
      <point x="485" y="394"/>
      <point x="468" y="309" type="qcurve" smooth="yes"/>
      <point x="466" y="298" type="line"/>
      <point x="720" y="298" type="line"/>
      <point x="724" y="316" type="line" smooth="yes"/>
      <point x="730" y="347"/>
    </contour>
  </outline>
</glyph>
<glyph name="scaron" format="2">
  <advance width="473"/>
  <unicode hex="0161"/>
  <outline>
    <contour>
      <point x="51" y="35" type="curve" smooth="yes"/>
      <point x="23" y="62"/>
      <point x="14" y="99"/>
      <point x="23" y="145" type="curve" smooth="yes"/>
      <point x="24" y="150" type="line"/>
      <point x="92" y="150" type="line"/>
      <point x="91" y="146" type="line" smooth="yes"/>
      <point x="85" y="117"/>
      <point x="92" y="95"/>
      <point x="110" y="78" type="curve" smooth="yes"/>
      <point x="129" y="61"/>
      <point x="157" y="53"/>
      <point x="195" y="53" type="curve" smooth="yes"/>
      <point x="234" y="53"/>
      <point x="266" y="61"/>
      <point x="291" y="77" type="curve" smooth="yes"/>
      <point x="316" y="93"/>
      <point x="333" y="115"/>
      <point x="339" y="144" type="curve" smooth="yes"/>
      <point x="344" y="170"/>
      <point x="340" y="190"/>
      <point x="327" y="202" type="curve" smooth="yes"/>
      <point x="315" y="214"/>
      <point x="291" y="223"/>
      <point x="259" y="229" type="curve" smooth="yes"/>
      <point x="197" y="241" type="line" smooth="yes"/>
      <point x="148" y="250"/>
      <point x="114" y="265"/>
      <point x="95" y="286" type="curve" smooth="yes"/>
      <point x="77" y="307"/>
      <point x="71" y="338"/>
      <point x="80" y="378" type="curve" smooth="yes"/>
      <point x="89" y="423"/>
      <point x="113" y="459"/>
      <point x="152" y="486" type="curve" smooth="yes"/>
      <point x="191" y="513"/>
      <point x="238" y="526"/>
      <point x="291" y="526" type="curve" smooth="yes"/>
      <point x="348" y="526"/>
      <point x="392" y="513"/>
      <point x="420" y="487" type="curve" smooth="yes"/>
      <point x="449" y="461"/>
      <point x="459" y="426"/>
      <point x="450" y="384" type="curve" smooth="yes"/>
      <point x="449" y="378" type="line"/>
      <point x="381" y="378" type="line"/>
      <point x="381" y="381" type="line" smooth="yes"/>
      <point x="387" y="408"/>
      <point x="381" y="429"/>
      <point x="364" y="445" type="curve" smooth="yes"/>
      <point x="346" y="461"/>
      <point x="319" y="469"/>
      <point x="282" y="469" type="curve" smooth="yes"/>
      <point x="246" y="469"/>
      <point x="215" y="461"/>
      <point x="192" y="445" type="curve" smooth="yes"/>
      <point x="168" y="429"/>
      <point x="154" y="408"/>
      <point x="148" y="381" type="curve" smooth="yes"/>
      <point x="143" y="358"/>
      <point x="147" y="341"/>
      <point x="158" y="328" type="curve" smooth="yes"/>
      <point x="169" y="315"/>
      <point x="192" y="306"/>
      <point x="222" y="301" type="curve" smooth="yes"/>
      <point x="287" y="289" type="line" smooth="yes"/>
      <point x="336" y="279"/>
      <point x="371" y="264"/>
      <point x="390" y="242" type="curve" smooth="yes"/>
      <point x="410" y="220"/>
      <point x="415" y="189"/>
      <point x="407" y="148" type="curve" smooth="yes"/>
      <point x="397" y="99"/>
      <point x="371" y="61"/>
      <point x="330" y="34" type="curve" smooth="yes"/>
      <point x="289" y="7"/>
      <point x="239" y="-6"/>
      <point x="180" y="-6" type="curve" smooth="yes"/>
      <point x="123" y="-6"/>
      <point x="80" y="8"/>
    </contour>
    <contour>
      <point x="194" y="724" type="line"/>
      <point x="258" y="724" type="line"/>
      <point x="312" y="627" type="line"/>
      <point x="406" y="724" type="line"/>
      <point x="470" y="724" type="line"/>
      <point x="329" y="577" type="line"/>
      <point x="273" y="577" type="line"/>
    </contour>
  </outline>
</glyph>
<glyph name="tbar" format="2">
  <advance width="348"/>
  <unicode hex="0167"/>
  <outline>
    <component base="t"/>
    <contour>
      <point x="56" y="367" type="line"/>
      <point x="324" y="367" type="line"/>
      <point x="313" y="314" type="line"/>
      <point x="45" y="314" type="line"/>
    </contour>
  </outline>
</glyph>
<glyph name="Uogonek" format="2">
  <advance width="650"/>
  <unicode hex="0172"/>
  <outline>
    <component base="U"/>
    <contour>
      <point x="377" y="42" type="line"/>
      <point x="426" y="42" type="line"/>
      <point x="291" y="-44" type="line"/>
      <point x="294" y="-50"/>
      <point x="297" y="-55"/>
      <point x="301" y="-60" type="curve" smooth="yes"/>
      <point x="319" y="-82"/>
      <point x="358" y="-94"/>
      <point x="398" y="-95" type="curve"/>
      <point x="385" y="-157" type="line"/>
      <point x="326" y="-156"/>
      <point x="280" y="-139"/>
      <point x="251" y="-106" type="curve" smooth="yes"/>
      <point x="236" y="-89"/>
      <point x="227" y="-67"/>
      <point x="224" y="-40" type="curve"/>
    </contour>
  </outline>
</glyph>
<glyph name="uogonek" format="2">
  <advance width="534"/>
  <unicode hex="0173"/>
  <outline>
    <component base="u"/>
    <contour>
      <point x="330.8978826094037" y="62" type="line"/>
      <point x="379.8978826094037" y="62" type="line"/>
      <point x="240.067155073539" y="-43" type="line"/>
      <point x="242.6117732378147" y="-50"/>
      <point x="246.57221478372588" y="-55"/>
      <point x="250.5326563296371" y="-60" type="curve" smooth="yes"/>
      <point x="268.9585991316464" y="-82"/>
      <point x="308.4636588418333" y="-94"/>
      <point x="348.2557471510155" y="-95" type="curve"/>
      <point x="335.36522232031444" y="-157" type="line"/>
      <point x="275.5731340111322" y="-156"/>
      <point x="230.1076327550341" y="-139"/>
      <point x="200.96871855202016" y="-106" type="curve" smooth="yes"/>
      <point x="185.50321729592207" y="-89"/>
      <point x="177.0772744939128" y="-67"/>
      <point x="173.69089014599228" y="-40" type="curve"/>
    </contour>
  </outline>
</glyph>
<glyph name="Zcaron" format="2">
  <advance width="528"/>
  <unicode hex="017D"/>
  <outline>
    <contour>
      <point x="451" y="68" type="line"/>
      <point x="437" y="0" type="line"/>
      <point x="-14" y="0" type="line"/>
      <point x="0" y="68" type="line"/>
      <point x="481" y="639" type="line"/>
      <point x="132" y="639" type="line"/>
      <point x="146" y="707" type="line"/>
      <point x="580" y="707" type="line"/>
      <point x="566" y="639" type="line"/>
      <point x="85" y="68" type="line"/>
    </contour>
    <contour>
      <point x="260" y="911" type="line"/>
      <point x="323" y="911" type="line"/>
      <point x="378" y="814" type="line"/>
      <point x="472" y="911" type="line"/>
      <point x="535" y="911" type="line"/>
      <point x="396" y="764" type="line"/>
      <point x="340" y="764" type="line"/>
    </contour>
  </outline>
</glyph>
<glyph name="zcaron" format="2">
  <advance width="466"/>
  <unicode hex="017E"/>
  <outline>
    <contour>
      <point x="447" y="455" type="line"/>
      <point x="97" y="65" type="line"/>
      <point x="366" y="65" type="line"/>
      <point x="352" y="0" type="line"/>
      <point x="5" y="0" type="line"/>
      <point x="19" y="65" type="line"/>
      <point x="367" y="455" type="line"/>
      <point x="100" y="455" type="line"/>
      <point x="113" y="519" type="line"/>
      <point x="460" y="519" type="line"/>
    </contour>
    <contour>
      <point x="191" y="724" type="line"/>
      <point x="255" y="724" type="line"/>
      <point x="308" y="627" type="line"/>
      <point x="403" y="724" type="line"/>
      <point x="467" y="724" type="line"/>
      <point x="326" y="577" type="line"/>
      <point x="270" y="577" type="line"/>
    </contour>
  </outline>
</glyph>
<glyph name="florin" format="2">
  <advance width="416"/>
  <unicode hex="0192"/>
  <outline>
    <contour>
      <point x="-59" y="-88" type="line"/>
      <point x="-31" y="-88" type="line" smooth="yes"/>
      <point x="10" y="-88"/>
      <point x="54" y="-53"/>
      <point x="73" y="-4" type="qcurve" smooth="yes"/>
      <point x="203" y="355" type="line"/>
      <point x="116" y="355" type="line"/>
      <point x="129" y="420" type="line"/>
      <point x="226" y="420" type="line"/>
      <point x="275" y="555" type="line" smooth="yes"/>
      <point x="305" y="636"/>
      <point x="392" y="707"/>
      <point x="466" y="707" type="qcurve" smooth="yes"/>
      <point x="499" y="707" type="line"/>
      <point x="484" y="639" type="line"/>
      <point x="450" y="639" type="line" smooth="yes"/>
      <point x="411" y="639"/>
      <point x="365" y="602"/>
      <point x="348" y="556" type="qcurve" smooth="yes"/>
      <point x="298" y="420" type="line"/>
      <point x="406" y="420" type="line"/>
      <point x="392" y="355" type="line"/>
      <point x="274" y="355" type="line"/>
      <point x="144" y="-2" type="line" smooth="yes"/>
      <point x="113" y="-87"/>
      <point x="29" y="-156"/>
      <point x="-45" y="-156" type="qcurve" smooth="yes"/>
      <point x="-75" y="-156" type="line"/>
    </contour>
  </outline>
</glyph>
<glyph name="Ocenteredtilde" format="2">
  <advance width="279"/>
  <unicode hex="019F"/>
  <outline>
    <component base="O"/>
    <contour>
      <point x="146" y="389" type="line"/>
      <point x="528" y="389" type="line"/>
      <point x="514" y="322" type="line"/>
      <point x="132" y="322" type="line"/>
    </contour>
  </outline>
</glyph>
<glyph name="Oogonek" format="2">
  <advance width="624"/>
  <unicode hex="01EA"/>
  <outline>
    <component base="O"/>
    <contour>
      <point x="354.660531884871" y="32" type="line"/>
      <point x="403.660531884871" y="32" type="line"/>
      <point x="270.8592433827213" y="-44" type="line"/>
      <point x="273.6117732378147" y="-50"/>
      <point x="276.5722147837259" y="-55"/>
      <point x="280.5326563296371" y="-60" type="curve" smooth="yes"/>
      <point x="298.9585991316464" y="-82"/>
      <point x="338.4636588418333" y="-94"/>
      <point x="378.2557471510155" y="-95" type="curve"/>
      <point x="365.36522232031444" y="-157" type="line"/>
      <point x="305.5731340111322" y="-156"/>
      <point x="260.1076327550341" y="-139"/>
      <point x="230.96871855202016" y="-106" type="curve" smooth="yes"/>
      <point x="215.50321729592207" y="-89"/>
      <point x="207.0772744939128" y="-67"/>
      <point x="203.69089014599228" y="-40" type="curve"/>
    </contour>
  </outline>
</glyph>
<glyph name="oogonek" format="2">
  <advance width="517"/>
  <unicode hex="01EB"/>
  <outline>
    <component base="o"/>
    <contour>
      <point x="284.03679681241766" y="29" type="line"/>
      <point x="333.03679681241766" y="29" type="line"/>
      <point x="200.85924338272125" y="-44" type="line"/>
      <point x="203.6117732378147" y="-50"/>
      <point x="206.57221478372588" y="-55"/>
      <point x="210.5326563296371" y="-60" type="curve" smooth="yes"/>
      <point x="228.9585991316464" y="-82"/>
      <point x="268.4636588418333" y="-94"/>
      <point x="308.2557471510155" y="-95" type="curve"/>
      <point x="295.36522232031444" y="-157" type="line"/>
      <point x="235.5731340111322" y="-156"/>
      <point x="190.1076327550341" y="-139"/>
      <point x="160.96871855202016" y="-106" type="curve" smooth="yes"/>
      <point x="145.50321729592207" y="-89"/>
      <point x="137.0772744939128" y="-67"/>
      <point x="133.69089014599228" y="-40" type="curve"/>
    </contour>
  </outline>
</glyph>
<glyph name="dotlessj" format="2">
  <advance width="241"/>
  <unicode hex="0237"/>
  <outline>
    <contour>
      <point x="-96" y="-92" type="line"/>
      <point x="-54" y="-92" type="line" smooth="yes"/>
      <point x="-19" y="-92"/>
      <point x="19" y="-55"/>
      <point x="28" y="-15" type="qcurve" smooth="yes"/>
      <point x="141" y="519" type="line"/>
      <point x="211" y="519" type="line"/>
      <point x="96" y="-19" type="line" smooth="yes"/>
      <point x="82" y="-86"/>
      <point x="2" y="-156"/>
      <point x="-60" y="-156" type="qcurve" smooth="yes"/>
      <point x="-110" y="-156" type="line"/>
    </contour>
  </outline>
</glyph>
<glyph name="breve" format="2">
  <advance width="512"/>
  <unicode hex="02D8"/>
  <outline>
    <contour>
      <point x="239" y="573" type="curve" smooth="yes"/>
      <point x="156" y="573"/>
      <point x="122" y="621"/>
      <point x="140" y="707" type="curve" smooth="yes"/>
      <point x="144" y="725" type="line"/>
      <point x="210" y="725" type="line"/>
      <point x="206" y="707" type="line" smooth="yes"/>
      <point x="196" y="657"/>
      <point x="211" y="633"/>
      <point x="252" y="633" type="curve" smooth="yes"/>
      <point x="293" y="633"/>
      <point x="318" y="657"/>
      <point x="328" y="707" type="curve" smooth="yes"/>
      <point x="332" y="725" type="line"/>
      <point x="398" y="725" type="line"/>
      <point x="394" y="707" type="line" smooth="yes"/>
      <point x="376" y="621"/>
      <point x="322" y="573"/>
    </contour>
  </outline>
</glyph>
<glyph name="ogonek" format="2">
  <advance width="512"/>
  <unicode hex="02DB"/>
  <outline>
    <contour>
      <point x="321" y="12" type="line"/>
      <point x="371" y="12" type="line"/>
      <point x="368" y="0" type="line"/>
      <point x="249" y="-58" type="line"/>
      <point x="268" y="-83"/>
      <point x="308" y="-94"/>
      <point x="348" y="-95" type="curve"/>
      <point x="335" y="-157" type="line"/>
      <point x="276" y="-156"/>
      <point x="230" y="-139"/>
      <point x="201" y="-106" type="curve" smooth="yes"/>
      <point x="186" y="-89"/>
      <point x="177" y="-67"/>
      <point x="174" y="-40" type="curve"/>
    </contour>
  </outline>
</glyph>
<glyph name="acutecomb.loclPLK" format="2">
  <unicode hex="0301"/>
  <outline>
    <contour>
      <point x="92" y="714" type="line"/>
      <point x="178" y="714" type="line"/>
      <point x="103" y="586" type="line"/>
      <point x="38" y="586" type="line"/>
    </contour>
  </outline>
</glyph>
<glyph name="circumflexcmb" format="2">
  <unicode hex="0302"/>
  <anchor x="55" y="519" name="_top"/>
  <outline>
    <contour>
      <point x="71" y="723" type="line"/>
      <point x="127" y="723" type="line"/>
      <point x="205" y="575" type="line"/>
      <point x="141" y="575" type="line"/>
      <point x="89" y="673" type="line"/>
      <point x="-7" y="575" type="line"/>
      <point x="-70" y="575" type="line"/>
    </contour>
  </outline>
</glyph>
<glyph name="hungarumlautcmb" format="2">
  <unicode hex="030B"/>
  <outline>
    <contour>
      <point x="15" y="714" type="line"/>
      <point x="101" y="714" type="line"/>
      <point x="-48" y="586" type="line"/>
      <point x="-113" y="586" type="line"/>
    </contour>
    <contour>
      <point x="165" y="714" type="line"/>
      <point x="251" y="714" type="line"/>
      <point x="102" y="586" type="line"/>
      <point x="37" y="586" type="line"/>
    </contour>
  </outline>
</glyph>
<glyph name="commaturnedabovecmb" format="2">
  <unicode hex="0312"/>
  <outline>
    <contour>
      <point x="87" y="586" type="line"/>
      <point x="1" y="586" type="line"/>
      <point x="150" y="714" type="line"/>
      <point x="215" y="714" type="line"/>
    </contour>
  </outline>
</glyph>
<glyph name="Ljecyr" format="2">
  <advance width="925"/>
  <unicode hex="0409"/>
  <outline>
    <component base="Elcyr"/>
    <contour>
      <point x="382" y="0" type="line"/>
      <point x="396" y="68" type="line"/>
      <point x="589" y="68" type="line" smooth="yes"/>
      <point x="690" y="68"/>
      <point x="750" y="107"/>
      <point x="770" y="201" type="curve" smooth="yes"/>
      <point x="784" y="270"/>
      <point x="743" y="328"/>
      <point x="643" y="328" type="curve" smooth="yes"/>
      <point x="450" y="328" type="line"/>
      <point x="464" y="395" type="line"/>
      <point x="663" y="395" type="line" smooth="yes"/>
      <point x="800" y="395"/>
      <point x="867" y="307"/>
      <point x="845" y="201" type="curve" smooth="yes"/>
      <point x="817" y="68"/>
      <point x="721" y="0"/>
      <point x="581" y="0" type="curve" smooth="yes"/>
    </contour>
  </outline>
</glyph>
<glyph name="Njecyr" format="2">
  <advance width="1005"/>
  <unicode hex="040A"/>
  <outline>
    <component base="H"/>
    <contour>
      <point x="462" y="0" type="line"/>
      <point x="476" y="68" type="line"/>
      <point x="669" y="68" type="line" smooth="yes"/>
      <point x="770" y="68"/>
      <point x="830" y="107"/>
      <point x="850" y="201" type="curve" smooth="yes"/>
      <point x="864" y="270"/>
      <point x="823" y="328"/>
      <point x="723" y="328" type="curve" smooth="yes"/>
      <point x="530" y="328" type="line"/>
      <point x="544" y="395" type="line"/>
      <point x="743" y="395" type="line" smooth="yes"/>
      <point x="880" y="395"/>
      <point x="947" y="307"/>
      <point x="925" y="201" type="curve" smooth="yes"/>
      <point x="897" y="68"/>
      <point x="801" y="0"/>
      <point x="661" y="0" type="curve" smooth="yes"/>
    </contour>
  </outline>
</glyph>
<glyph name="Tshecyr" format="2">
  <advance width="745"/>
  <unicode hex="040B"/>
  <outline>
    <contour>
      <point x="100" y="707" type="line"/>
      <point x="577" y="707" type="line"/>
      <point x="563" y="639" type="line"/>
      <point x="362" y="639" type="line"/>
      <point x="315" y="415" type="line"/>
      <point x="375" y="430"/>
      <point x="434" y="435"/>
      <point x="491" y="435" type="curve" smooth="yes"/>
      <point x="628" y="435"/>
      <point x="693" y="337"/>
      <point x="667" y="211" type="curve" smooth="yes"/>
      <point x="623" y="0" type="line"/>
      <point x="548" y="0" type="line"/>
      <point x="592" y="211" type="line" smooth="yes"/>
      <point x="610" y="300"/>
      <point x="572" y="368"/>
      <point x="472" y="368" type="curve" smooth="yes"/>
      <point x="417" y="368"/>
      <point x="359" y="363"/>
      <point x="301" y="348" type="curve"/>
      <point x="229" y="0" type="line"/>
      <point x="155" y="0" type="line"/>
      <point x="288" y="639" type="line"/>
      <point x="86" y="639" type="line"/>
    </contour>
  </outline>
</glyph>
<glyph name="Dzhecyr" format="2">
  <advance width="611"/>
  <unicode hex="040F"/>
  <outline>
    <contour>
      <point x="174" y="707" type="line"/>
      <point x="249" y="707" type="line"/>
      <point x="116" y="67" type="line"/>
      <point x="413" y="67" type="line"/>
      <point x="546" y="707" type="line"/>
      <point x="621" y="707" type="line"/>
      <point x="474" y="0" type="line"/>
      <point x="288" y="0" type="line"/>
      <point x="253" y="-170" type="line"/>
      <point x="178" y="-170" type="line"/>
      <point x="213" y="0" type="line"/>
      <point x="27" y="0" type="line"/>
    </contour>
  </outline>
</glyph>
<glyph name="Gecyr" format="2">
  <advance width="551"/>
  <unicode hex="0413"/>
  <guideline x="316" y="0" angle="90" name="h1"/>
  <anchor x="316" y="773" name="top"/>
  <outline>
    <contour>
      <point x="174" y="707" type="line"/>
      <point x="603" y="707" type="line"/>
      <point x="589" y="640" type="line"/>
      <point x="235" y="640" type="line"/>
      <point x="102" y="0" type="line"/>
      <point x="27" y="0" type="line"/>
    </contour>
  </outline>
</glyph>
<glyph name="Decyr" format="2">
  <advance width="650"/>
  <unicode hex="0414"/>
  <outline>
    <contour>
      <point x="265" y="707" type="line"/>
      <point x="655" y="707" type="line"/>
      <point x="522" y="67" type="line"/>
      <point x="599" y="67" type="line"/>
      <point x="550" y="-170" type="line"/>
      <point x="475" y="-170" type="line"/>
      <point x="510" y="0" type="line"/>
      <point x="30" y="0" type="line"/>
      <point x="-5" y="-170" type="line"/>
      <point x="-80" y="-170" type="line"/>
      <point x="-31" y="67" type="line"/>
      <point x="15" y="67" type="line"/>
      <point x="77" y="67"/>
      <point x="182" y="377"/>
      <point x="229" y="564" type="curve" smooth="yes"/>
    </contour>
    <contour>
      <point x="324" y="640" type="line"/>
      <point x="307" y="570" type="line" smooth="yes"/>
      <point x="210" y="175"/>
      <point x="150" y="85"/>
      <point x="121" y="67" type="curve"/>
      <point x="447" y="67" type="line"/>
      <point x="566" y="640" type="line"/>
    </contour>
  </outline>
</glyph>
<glyph name="Zhecyr" format="2">
  <advance width="989"/>
  <unicode hex="0416"/>
  <guideline x="223" y="0" angle="90" name="vertical"/>
  <guideline x="0" y="707" angle="0" name="horizontal"/>
  <guideline x="424" y="0" angle="90" name="vertical"/>
  <guideline x="0" y="707" angle="0" name="horizontal"/>
  <anchor x="416" y="707" name="top"/>
  <outline>
    <contour>
      <point x="134" y="707" type="line"/>
      <point x="223" y="707" type="line"/>
      <point x="404" y="395" type="line"/>
      <point x="484" y="395" type="line"/>
      <point x="549" y="707" type="line"/>
      <point x="624" y="707" type="line"/>
      <point x="559" y="395" type="line"/>
      <point x="639" y="395" type="line"/>
      <point x="950" y="707" type="line"/>
      <point x="1039" y="707" type="line"/>
      <point x="712" y="386" type="line"/>
      <point x="924" y="0" type="line"/>
      <point x="837" y="0" type="line"/>
      <point x="652" y="328" type="line"/>
      <point x="545" y="328" type="line"/>
      <point x="477" y="0" type="line"/>
      <point x="402" y="0" type="line"/>
      <point x="470" y="328" type="line"/>
      <point x="363" y="328" type="line"/>
      <point x="42" y="0" type="line"/>
      <point x="-45" y="0" type="line"/>
      <point x="327" y="386" type="line"/>
    </contour>
  </outline>
</glyph>
<glyph name="Zecyr" format="2">
  <advance width="611"/>
  <unicode hex="0417"/>
  <outline>
    <contour>
      <point x="67" y="189" type="line"/>
      <point x="142" y="189" type="line"/>
      <point x="141" y="181" type="line" smooth="yes"/>
      <point x="125" y="106"/>
      <point x="175" y="59"/>
      <point x="262" y="59" type="curve" smooth="yes"/>
      <point x="351" y="59"/>
      <point x="434" y="98"/>
      <point x="452" y="183" type="curve" smooth="yes"/>
      <point x="455" y="195" type="line" smooth="yes"/>
      <point x="474" y="287"/>
      <point x="416" y="328"/>
      <point x="325" y="328" type="curve" smooth="yes"/>
      <point x="226" y="328" type="line"/>
      <point x="240" y="394" type="line"/>
      <point x="333" y="394" type="line" smooth="yes"/>
      <point x="417" y="394"/>
      <point x="492" y="430"/>
      <point x="509" y="512" type="curve" smooth="yes"/>
      <point x="511" y="520" type="line" smooth="yes"/>
      <point x="530" y="609"/>
      <point x="475" y="649"/>
      <point x="387" y="649" type="curve" smooth="yes"/>
      <point x="299" y="649"/>
      <point x="228" y="601"/>
      <point x="213" y="527" type="curve" smooth="yes"/>
      <point x="211" y="519" type="line"/>
      <point x="136" y="519" type="line"/>
      <point x="138" y="527" type="line" smooth="yes"/>
      <point x="161" y="642"/>
      <point x="270" y="716"/>
      <point x="408" y="716" type="curve" smooth="yes"/>
      <point x="535" y="716"/>
      <point x="614" y="653"/>
      <point x="587" y="524" type="curve" smooth="yes"/>
      <point x="585" y="514" type="line" smooth="yes"/>
      <point x="571" y="446"/>
      <point x="515" y="385"/>
      <point x="445" y="364" type="curve"/>
      <point x="515" y="341"/>
      <point x="547" y="280"/>
      <point x="532" y="205" type="curve" smooth="yes"/>
      <point x="529" y="190" type="line" smooth="yes"/>
      <point x="501" y="59"/>
      <point x="379" y="-8"/>
      <point x="250" y="-8" type="curve" smooth="yes"/>
      <point x="116" y="-8"/>
      <point x="42" y="66"/>
      <point x="66" y="181" type="curve" smooth="yes"/>
    </contour>
  </outline>
</glyph>
<glyph name="Icyr" format="2">
  <advance width="679"/>
  <unicode hex="0418"/>
  <guideline x="323" y="0" angle="90" name="h1"/>
  <anchor x="323" y="773" name="top"/>
  <outline>
    <contour>
      <point x="174" y="707" type="line"/>
      <point x="249" y="707" type="line"/>
      <point x="131" y="139" type="line"/>
      <point x="614" y="707" type="line"/>
      <point x="689" y="707" type="line"/>
      <point x="542" y="0" type="line"/>
      <point x="467" y="0" type="line"/>
      <point x="585" y="569" type="line"/>
      <point x="102" y="0" type="line"/>
      <point x="27" y="0" type="line"/>
    </contour>
  </outline>
</glyph>
<glyph name="Kacyr" format="2">
  <advance width="612"/>
  <unicode hex="041A"/>
  <guideline x="0" y="707" angle="0" name="horizontal"/>
  <guideline x="285" y="0" angle="90" name="h1"/>
  <anchor x="285" y="773" name="top"/>
  <outline>
    <contour>
      <point x="137" y="328" type="line"/>
      <point x="305" y="328" type="line"/>
      <point x="305" y="395" type="line"/>
      <point x="137" y="395" type="line"/>
    </contour>
    <contour>
      <point x="82" y="0" type="line"/>
      <point x="157" y="0" type="line"/>
      <point x="157" y="707" type="line"/>
      <point x="82" y="707" type="line"/>
    </contour>
    <contour>
      <point x="517" y="0" type="line"/>
      <point x="604" y="0" type="line"/>
      <point x="305" y="395" type="line"/>
      <point x="257" y="337" type="line"/>
    </contour>
    <contour>
      <point x="213" y="339" type="line"/>
      <point x="274" y="339" type="line"/>
      <point x="572" y="707" type="line"/>
      <point x="483" y="707" type="line"/>
      <point x="213" y="365" type="line"/>
    </contour>
  </outline>
</glyph>
<glyph name="Elcyr" format="2">
  <advance width="569"/>
  <unicode hex="041B"/>
  <outline>
    <contour>
      <point x="209" y="707" type="line"/>
      <point x="579" y="707" type="line"/>
      <point x="432" y="0" type="line"/>
      <point x="357" y="0" type="line"/>
      <point x="490" y="640" type="line"/>
      <point x="265" y="640" type="line"/>
      <point x="138" y="192" type="line" smooth="yes"/>
      <point x="99" y="55"/>
      <point x="44" y="-8"/>
      <point x="-37" y="-8" type="curve"/>
      <point x="-21" y="67" type="line"/>
      <point x="10" y="67"/>
      <point x="35" y="111"/>
      <point x="69" y="225" type="curve" smooth="yes"/>
    </contour>
  </outline>
</glyph>
<glyph name="Tsecyr" format="2">
  <advance width="616"/>
  <unicode hex="0426"/>
  <outline>
    <contour>
      <point x="454" y="0" type="line"/>
      <point x="529" y="0" type="line"/>
      <point x="529" y="707" type="line"/>
      <point x="454" y="707" type="line"/>
    </contour>
    <contour>
      <point x="147" y="0" type="line"/>
      <point x="387" y="0" type="line"/>
      <point x="387" y="67" type="line"/>
      <point x="147" y="67" type="line"/>
    </contour>
    <contour>
      <point x="82" y="0" type="line"/>
      <point x="157" y="0" type="line"/>
      <point x="157" y="707" type="line"/>
      <point x="82" y="707" type="line"/>
    </contour>
    <contour>
      <point x="367" y="0" type="line"/>
      <point x="531" y="0" type="line"/>
      <point x="531" y="-170" type="line"/>
      <point x="606" y="-170" type="line"/>
      <point x="606" y="67" type="line"/>
      <point x="367" y="67" type="line"/>
    </contour>
  </outline>
</glyph>
<glyph name="Checyr" format="2">
  <advance width="647"/>
  <unicode hex="0427"/>
  <outline>
    <component base="I" xOffset="400"/>
    <contour>
      <point x="172" y="707" type="line"/>
      <point x="248" y="707" type="line"/>
      <point x="198" y="467" type="line" smooth="yes"/>
      <point x="176" y="361"/>
      <point x="227" y="290"/>
      <point x="329" y="290" type="curve" smooth="yes"/>
      <point x="401" y="290"/>
      <point x="463" y="307"/>
      <point x="507" y="342" type="curve"/>
      <point x="533" y="342" type="line"/>
      <point x="520" y="281" type="line"/>
      <point x="473" y="243"/>
      <point x="406" y="224"/>
      <point x="316" y="224" type="curve" smooth="yes"/>
      <point x="169" y="224"/>
      <point x="91" y="318"/>
      <point x="121" y="460" type="curve" smooth="yes"/>
    </contour>
  </outline>
</glyph>
<glyph name="Softcyr" format="2">
  <advance width="625"/>
  <unicode hex="042C"/>
  <guideline x="306" y="0" angle="90" name="h1"/>
  <guideline x="306" y="0" angle="90" name="h1"/>
  <anchor x="306" y="773" name="top"/>
  <outline>
    <contour>
      <point x="174" y="707" type="line"/>
      <point x="249" y="707" type="line"/>
      <point x="188" y="415" type="line"/>
      <point x="367" y="415" type="line" smooth="yes"/>
      <point x="504" y="415"/>
      <point x="573" y="337"/>
      <point x="547" y="211" type="curve" smooth="yes"/>
      <point x="519" y="78"/>
      <point x="421" y="0"/>
      <point x="281" y="0" type="curve" smooth="yes"/>
      <point x="27" y="0" type="line"/>
    </contour>
    <contour>
      <point x="174" y="348" type="line"/>
      <point x="116" y="68" type="line"/>
      <point x="289" y="68" type="line" smooth="yes"/>
      <point x="390" y="68"/>
      <point x="452" y="117"/>
      <point x="472" y="211" type="curve" smooth="yes"/>
      <point x="490" y="300"/>
      <point x="447" y="348"/>
      <point x="347" y="348" type="curve" smooth="yes"/>
    </contour>
  </outline>
</glyph>
<glyph name="Ereversedcyr" format="2">
  <advance width="617"/>
  <unicode hex="042D"/>
  <guideline x="302" y="0" angle="90" name="h1"/>
  <anchor x="302" y="773" name="top"/>
  <outline>
    <component base="C" xScale="-1" xOffset="618"/>
    <contour>
      <point x="251" y="328" type="line"/>
      <point x="491" y="328" type="line"/>
      <point x="491" y="395" type="line"/>
      <point x="251" y="395" type="line"/>
    </contour>
  </outline>
</glyph>
<glyph name="vecyr" format="2">
  <advance width="535"/>
  <unicode hex="0432"/>
  <outline>
    <contour>
      <point x="72" y="0" type="line"/>
      <point x="239" y="0" type="line" smooth="yes"/>
      <point x="349" y="0"/>
      <point x="414" y="49"/>
      <point x="435" y="147" type="curve" smooth="yes"/>
      <point x="449" y="217"/>
      <point x="432" y="268"/>
      <point x="384" y="284" type="curve"/>
      <point x="385" y="287" type="line"/>
      <point x="435" y="311"/>
      <point x="455" y="343"/>
      <point x="465" y="391" type="curve" smooth="yes"/>
      <point x="481" y="468"/>
      <point x="440" y="519"/>
      <point x="361" y="519" type="curve" smooth="yes"/>
      <point x="180" y="519" type="line"/>
      <point x="166" y="454" type="line"/>
      <point x="329" y="454" type="line" smooth="yes"/>
      <point x="373" y="454"/>
      <point x="406" y="442"/>
      <point x="394" y="385" type="curve" smooth="yes"/>
      <point x="388" y="356"/>
      <point x="351" y="311"/>
      <point x="300" y="311" type="curve" smooth="yes"/>
      <point x="137" y="311" type="line"/>
      <point x="123" y="246" type="line"/>
      <point x="301" y="246" type="line" smooth="yes"/>
      <point x="357" y="246"/>
      <point x="367" y="200"/>
      <point x="357" y="154" type="curve" smooth="yes"/>
      <point x="345" y="98"/>
      <point x="309" y="65"/>
      <point x="259" y="65" type="curve" smooth="yes"/>
      <point x="86" y="65" type="line"/>
    </contour>
    <contour>
      <point x="22" y="0" type="line"/>
      <point x="92" y="0" type="line"/>
      <point x="200" y="519" type="line"/>
      <point x="130" y="519" type="line"/>
    </contour>
  </outline>
</glyph>
<glyph name="gecyr" format="2">
  <advance width="345"/>
  <unicode hex="0433"/>
  <guideline x="213" y="0" angle="90" name="h1"/>
  <anchor x="213" y="586" name="top"/>
  <outline>
    <contour>
      <point x="358" y="454" type="line"/>
      <point x="372" y="519" type="line"/>
      <point x="130" y="519" type="line"/>
      <point x="116" y="454" type="line"/>
    </contour>
    <contour>
      <point x="22" y="0" type="line"/>
      <point x="91" y="0" type="line"/>
      <point x="199" y="519" type="line"/>
      <point x="130" y="519" type="line"/>
    </contour>
  </outline>
</glyph>
<glyph name="decyr" format="2">
  <advance width="539"/>
  <unicode hex="0434"/>
  <guideline x="233" y="418" angle="87.1659"/>
  <guideline x="169" y="519" angle="266.6"/>
  <outline>
    <contour>
      <point x="-70" y="-170" type="line"/>
      <point x="-21" y="65" type="line"/>
      <point x="41" y="65" type="line"/>
      <point x="91" y="105"/>
      <point x="145" y="234"/>
      <point x="195" y="418" type="curve" smooth="yes"/>
      <point x="222" y="519" type="line"/>
      <point x="522" y="519" type="line"/>
      <point x="428" y="65" type="line"/>
      <point x="478" y="65" type="line"/>
      <point x="429" y="-170" type="line"/>
      <point x="359" y="-170" type="line"/>
      <point x="394" y="0" type="line"/>
      <point x="40" y="0" type="line"/>
      <point x="5" y="-170" type="line"/>
    </contour>
    <contour>
      <point x="265" y="418" type="line" smooth="yes"/>
      <point x="221" y="251"/>
      <point x="173" y="132"/>
      <point x="123" y="65" type="curve"/>
      <point x="358" y="65" type="line"/>
      <point x="438" y="452" type="line"/>
      <point x="274" y="452" type="line"/>
    </contour>
  </outline>
</glyph>
<glyph name="zhecyr" format="2">
  <advance width="777"/>
  <unicode hex="0436"/>
  <guideline x="273" y="0" angle="90" name="vertical"/>
  <guideline x="0" y="519" angle="0" name="horizontal"/>
  <guideline x="778" y="0" angle="90" name="vertical"/>
  <guideline x="0" y="519" angle="0" name="horizontal"/>
  <anchor x="778" y="519" name="top"/>
  <outline>
    <component base="kacyr" xOffset="277"/>
    <contour>
      <point x="304" y="261" type="line"/>
      <point x="180" y="519" type="line"/>
      <point x="96" y="519" type="line"/>
      <point x="229" y="261" type="line"/>
    </contour>
    <contour>
      <point x="44" y="0" type="line"/>
      <point x="272" y="248" type="line"/>
      <point x="241" y="306" type="line"/>
      <point x="-41" y="0" type="line"/>
    </contour>
    <contour>
      <point x="369" y="240" type="line"/>
      <point x="382" y="305" type="line"/>
      <point x="247" y="305" type="line"/>
      <point x="234" y="240" type="line"/>
    </contour>
  </outline>
</glyph>
<glyph name="zecyr" format="2">
  <advance width="477"/>
  <unicode hex="0437"/>
  <outline>
    <contour>
      <point x="34" y="139" type="line"/>
      <point x="104" y="139" type="line"/>
      <point x="103" y="133" type="line" smooth="yes"/>
      <point x="92" y="81"/>
      <point x="126" y="46"/>
      <point x="185" y="46" type="curve" smooth="yes"/>
      <point x="250" y="46"/>
      <point x="292" y="78"/>
      <point x="304" y="136" type="curve" smooth="yes"/>
      <point x="306" y="143" type="line" smooth="yes"/>
      <point x="319" y="206"/>
      <point x="287" y="239"/>
      <point x="213" y="239" type="curve" smooth="yes"/>
      <point x="145" y="239" type="line"/>
      <point x="156" y="291" type="line"/>
      <point x="220" y="291" type="line" smooth="yes"/>
      <point x="291" y="291"/>
      <point x="334" y="321"/>
      <point x="346" y="381" type="curve" smooth="yes"/>
      <point x="348" y="388" type="line" smooth="yes"/>
      <point x="360" y="445"/>
      <point x="332" y="474"/>
      <point x="268" y="474" type="curve" smooth="yes"/>
      <point x="213" y="474"/>
      <point x="166" y="437"/>
      <point x="155" y="387" type="curve" smooth="yes"/>
      <point x="154" y="380" type="line"/>
      <point x="84" y="380" type="line"/>
      <point x="85" y="387" type="line" smooth="yes"/>
      <point x="101" y="463"/>
      <point x="182" y="526"/>
      <point x="278" y="526" type="curve" smooth="yes"/>
      <point x="387" y="526"/>
      <point x="436" y="474"/>
      <point x="417" y="384" type="curve" smooth="yes"/>
      <point x="416" y="379" type="line" smooth="yes"/>
      <point x="406" y="330"/>
      <point x="370" y="290"/>
      <point x="323" y="273" type="curve"/>
      <point x="322" y="270" type="line"/>
      <point x="369" y="251"/>
      <point x="388" y="206"/>
      <point x="375" y="146" type="curve" smooth="yes"/>
      <point x="374" y="140" type="line" smooth="yes"/>
      <point x="356" y="51"/>
      <point x="276" y="-6"/>
      <point x="172" y="-6" type="curve" smooth="yes"/>
      <point x="72" y="-6"/>
      <point x="15" y="50"/>
      <point x="33" y="133" type="curve" smooth="yes"/>
    </contour>
  </outline>
</glyph>
<glyph name="kacyr" format="2">
  <advance width="500"/>
  <unicode hex="043A"/>
  <guideline x="235" y="261" angle="54.0652"/>
  <guideline x="225" y="248" angle="305.362"/>
  <guideline x="0" y="343" angle="0"/>
  <guideline x="0" y="258" angle="0"/>
  <guideline x="373" y="519" angle="235.397"/>
  <guideline x="486" y="0" angle="125.519"/>
  <guideline x="0" y="277" angle="0"/>
  <guideline x="373" y="519" angle="235.397"/>
  <guideline x="270" y="261" angle="54.0652"/>
  <guideline x="235" y="0" angle="90" name="h1"/>
  <anchor x="235" y="586" name="top"/>
  <outline>
    <contour>
      <point x="22" y="0" type="line"/>
      <point x="91" y="0" type="line"/>
      <point x="199" y="519" type="line"/>
      <point x="130" y="519" type="line"/>
    </contour>
    <contour>
      <point x="194" y="261" type="line"/>
      <point x="269" y="261" type="line"/>
      <point x="510" y="519" type="line"/>
      <point x="426" y="519" type="line"/>
    </contour>
    <contour>
      <point x="346" y="0" type="line"/>
      <point x="431" y="0" type="line"/>
      <point x="277" y="306" type="line"/>
      <point x="222" y="248" type="line"/>
    </contour>
    <contour>
      <point x="121" y="240" type="line"/>
      <point x="256" y="240" type="line"/>
      <point x="269" y="305" type="line"/>
      <point x="134" y="305" type="line"/>
    </contour>
  </outline>
</glyph>
<glyph name="elcyr" format="2">
  <advance width="478"/>
  <unicode hex="043B"/>
  <outline>
    <contour>
      <point x="276" y="0" type="line"/>
      <point x="346" y="0" type="line"/>
      <point x="454" y="519" type="line"/>
      <point x="384" y="519" type="line"/>
    </contour>
    <contour>
      <point x="158" y="452" type="line"/>
      <point x="438" y="452" type="line"/>
      <point x="452" y="519" type="line"/>
      <point x="172" y="519" type="line"/>
    </contour>
    <contour>
      <point x="-45" y="0" type="line"/>
      <point x="20" y="0"/>
      <point x="84" y="52"/>
      <point x="112" y="142" type="curve" smooth="yes"/>
      <point x="227" y="519" type="line"/>
      <point x="158" y="519" type="line"/>
      <point x="54" y="188" type="line" smooth="yes"/>
      <point x="24" y="91"/>
      <point x="6" y="72"/>
      <point x="-30" y="72" type="curve"/>
    </contour>
  </outline>
</glyph>
<glyph name="emcyr" format="2">
  <advance width="667"/>
  <unicode hex="043C"/>
  <outline>
    <contour>
      <point x="22" y="0" type="line"/>
      <point x="92" y="0" type="line"/>
      <point x="171" y="379" type="line" smooth="yes"/>
      <point x="179" y="419"/>
      <point x="185" y="479"/>
      <point x="190" y="519" type="curve"/>
      <point x="130" y="519" type="line"/>
    </contour>
    <contour>
      <point x="272" y="80" type="line"/>
      <point x="296" y="80" type="line"/>
      <point x="315" y="174" type="line"/>
      <point x="313" y="174" type="line"/>
      <point x="311" y="193"/>
      <point x="307" y="215"/>
      <point x="302" y="230" type="curve" smooth="yes"/>
      <point x="202" y="519" type="line"/>
      <point x="186" y="519" type="line"/>
      <point x="162" y="405" type="line"/>
      <point x="176" y="405" type="line"/>
      <point x="176" y="386"/>
      <point x="179" y="360"/>
      <point x="185" y="339" type="curve" smooth="yes"/>
    </contour>
    <contour>
      <point x="296" y="80" type="line"/>
      <point x="320" y="80" type="line"/>
      <point x="512" y="339" type="line" smooth="yes"/>
      <point x="529" y="360"/>
      <point x="542" y="386"/>
      <point x="549" y="405" type="curve"/>
      <point x="563" y="405" type="line"/>
      <point x="587" y="519" type="line"/>
      <point x="571" y="519" type="line"/>
      <point x="352" y="230" type="line" smooth="yes"/>
      <point x="341" y="215"/>
      <point x="326" y="193"/>
      <point x="317" y="174" type="curve"/>
      <point x="315" y="174" type="line"/>
    </contour>
    <contour>
      <point x="465" y="0" type="line"/>
      <point x="535" y="0" type="line"/>
      <point x="643" y="519" type="line"/>
      <point x="583" y="519" type="line"/>
      <point x="571" y="479"/>
      <point x="552" y="419"/>
      <point x="544" y="379" type="curve" smooth="yes"/>
    </contour>
  </outline>
</glyph>
<glyph name="encyr" format="2">
  <advance width="536"/>
  <unicode hex="043D"/>
  <outline>
    <contour>
      <point x="334" y="0" type="line"/>
      <point x="404" y="0" type="line"/>
      <point x="512" y="519" type="line"/>
      <point x="442" y="519" type="line"/>
    </contour>
    <contour>
      <point x="22" y="0" type="line"/>
      <point x="92" y="0" type="line"/>
      <point x="200" y="519" type="line"/>
      <point x="130" y="519" type="line"/>
    </contour>
    <contour>
      <point x="123" y="246" type="line"/>
      <point x="405" y="246" type="line"/>
      <point x="419" y="311" type="line"/>
      <point x="137" y="311" type="line"/>
    </contour>
  </outline>
</glyph>
<glyph name="pecyr" format="2">
  <advance width="528"/>
  <unicode hex="043F"/>
  <outline>
    <contour>
      <point x="326" y="0" type="line"/>
      <point x="396" y="0" type="line"/>
      <point x="504" y="519" type="line"/>
      <point x="434" y="519" type="line"/>
    </contour>
    <contour>
      <point x="22" y="0" type="line"/>
      <point x="92" y="0" type="line"/>
      <point x="200" y="519" type="line"/>
      <point x="130" y="519" type="line"/>
    </contour>
    <contour>
      <point x="158" y="454" type="line"/>
      <point x="440" y="454" type="line"/>
      <point x="454" y="519" type="line"/>
      <point x="172" y="519" type="line"/>
    </contour>
  </outline>
</glyph>
<glyph name="tecyr" format="2">
  <advance width="392"/>
  <unicode hex="0442"/>
  <guideline x="196" y="0" angle="90" name="h1"/>
  <anchor x="196" y="586" name="top"/>
  <outline>
    <contour>
      <point x="65" y="454" type="line"/>
      <point x="405" y="454" type="line"/>
      <point x="419" y="519" type="line"/>
      <point x="79" y="519" type="line"/>
    </contour>
    <contour>
      <point x="108" y="0" type="line"/>
      <point x="177" y="0" type="line"/>
      <point x="285" y="519" type="line"/>
      <point x="216" y="519" type="line"/>
    </contour>
  </outline>
</glyph>
<glyph name="tsecyr" format="2">
  <advance width="519"/>
  <unicode hex="0446"/>
  <outline>
    <contour>
      <point x="334" y="0" type="line"/>
      <point x="404" y="0" type="line"/>
      <point x="512" y="519" type="line"/>
      <point x="442" y="519" type="line"/>
    </contour>
    <contour>
      <point x="22" y="0" type="line"/>
      <point x="92" y="0" type="line"/>
      <point x="200" y="519" type="line"/>
      <point x="130" y="519" type="line"/>
    </contour>
    <contour>
      <point x="72" y="0" type="line"/>
      <point x="354" y="0" type="line"/>
      <point x="368" y="65" type="line"/>
      <point x="86" y="65" type="line"/>
    </contour>
    <contour>
      <point x="349" y="-170" type="line"/>
      <point x="419" y="-170" type="line"/>
      <point x="468" y="65" type="line"/>
      <point x="378" y="65" type="line"/>
      <point x="364" y="0" type="line"/>
      <point x="384" y="0" type="line"/>
    </contour>
  </outline>
</glyph>
<glyph name="shchacyr" format="2">
  <advance width="763"/>
  <unicode hex="0449"/>
  <outline>
    <contour>
      <point x="391" y="0" type="line"/>
      <point x="673" y="0" type="line"/>
      <point x="673" y="65" type="line"/>
      <point x="391" y="65" type="line"/>
    </contour>
    <contour>
      <point x="113" y="0" type="line"/>
      <point x="395" y="0" type="line"/>
      <point x="395" y="65" type="line"/>
      <point x="113" y="65" type="line"/>
    </contour>
    <contour>
      <point x="633" y="0" type="line"/>
      <point x="703" y="0" type="line"/>
      <point x="703" y="519" type="line"/>
      <point x="633" y="519" type="line"/>
    </contour>
    <contour>
      <point x="355" y="0" type="line"/>
      <point x="425" y="0" type="line"/>
      <point x="425" y="519" type="line"/>
      <point x="355" y="519" type="line"/>
    </contour>
    <contour>
      <point x="77" y="0" type="line"/>
      <point x="147" y="0" type="line"/>
      <point x="147" y="519" type="line"/>
      <point x="77" y="519" type="line"/>
    </contour>
    <contour>
      <point x="683" y="-170" type="line"/>
      <point x="753" y="-170" type="line"/>
      <point x="753" y="65" type="line"/>
      <point x="663" y="65" type="line"/>
      <point x="663" y="0" type="line"/>
      <point x="683" y="0" type="line"/>
    </contour>
  </outline>
</glyph>
<glyph name="softcyr" format="2">
  <advance width="519"/>
  <unicode hex="044C"/>
  <outline>
    <contour>
      <point x="22" y="0" type="line"/>
      <point x="92" y="0" type="line"/>
      <point x="200" y="519" type="line"/>
      <point x="130" y="519" type="line"/>
    </contour>
    <contour>
      <point x="72" y="0" type="line"/>
      <point x="239" y="0" type="line" smooth="yes"/>
      <point x="349" y="0"/>
      <point x="414" y="49"/>
      <point x="435" y="147" type="curve" smooth="yes"/>
      <point x="455" y="244"/>
      <point x="433" y="311"/>
      <point x="320" y="311" type="curve" smooth="yes"/>
      <point x="137" y="311" type="line"/>
      <point x="123" y="246" type="line"/>
      <point x="301" y="246" type="line" smooth="yes"/>
      <point x="357" y="246"/>
      <point x="367" y="200"/>
      <point x="357" y="154" type="curve" smooth="yes"/>
      <point x="345" y="98"/>
      <point x="309" y="65"/>
      <point x="259" y="65" type="curve" smooth="yes"/>
      <point x="86" y="65" type="line"/>
    </contour>
  </outline>
</glyph>
<glyph name="ereversedcyr" format="2">
  <advance width="515"/>
  <unicode hex="044D"/>
  <guideline x="0" y="519" angle="0" name="horizontal"/>
  <guideline x="251" y="0" angle="90" name="h1"/>
  <anchor x="251" y="586" name="top"/>
  <outline>
    <component base="c" xScale="-1" xOffset="515"/>
    <contour>
      <point x="212" y="246" type="line"/>
      <point x="405" y="246" type="line"/>
      <point x="419" y="311" type="line"/>
      <point x="226" y="311" type="line"/>
    </contour>
  </outline>
</glyph>
<glyph name="eukrcyr" format="2">
  <advance width="515"/>
  <unicode hex="0454"/>
  <outline>
    <contour>
      <point x="316" y="526" type="curve" smooth="yes"/>
      <point x="426" y="526"/>
      <point x="497" y="466"/>
      <point x="473" y="352" type="curve" smooth="yes"/>
      <point x="472" y="348" type="line"/>
      <point x="404" y="348" type="line"/>
      <point x="405" y="352" type="line" smooth="yes"/>
      <point x="420" y="425"/>
      <point x="377" y="463"/>
      <point x="306" y="463" type="curve" smooth="yes"/>
      <point x="205" y="463"/>
      <point x="159" y="403"/>
      <point x="140" y="311" type="curve"/>
      <point x="309" y="311" type="line"/>
      <point x="295" y="246" type="line"/>
      <point x="126" y="246" type="line"/>
      <point x="119" y="211" type="line" smooth="yes"/>
      <point x="100" y="118"/>
      <point x="119" y="56"/>
      <point x="221" y="56" type="curve" smooth="yes"/>
      <point x="293" y="56"/>
      <point x="351" y="93"/>
      <point x="367" y="167" type="curve" smooth="yes"/>
      <point x="368" y="171" type="line"/>
      <point x="436" y="171" type="line"/>
      <point x="435" y="167" type="line" smooth="yes"/>
      <point x="411" y="55"/>
      <point x="313" y="-6"/>
      <point x="207" y="-6" type="curve" smooth="yes"/>
      <point x="70" y="-6"/>
      <point x="20" y="74"/>
      <point x="48" y="207" type="curve" smooth="yes"/>
      <point x="70" y="313" type="line" smooth="yes"/>
      <point x="98" y="446"/>
      <point x="179" y="526"/>
    </contour>
  </outline>
</glyph>
<glyph name="emdash" format="2">
  <advance width="852"/>
  <unicode hex="2014"/>
  <outline>
    <contour>
      <point x="28" y="389" type="line"/>
      <point x="881" y="389" type="line"/>
      <point x="866" y="322" type="line"/>
      <point x="13" y="322" type="line"/>
    </contour>
  </outline>
</glyph>
<glyph name="bullet" format="2">
  <advance width="489"/>
  <unicode hex="2022"/>
  <outline>
    <contour>
      <point x="131" y="315" type="curve" smooth="yes"/>
      <point x="131" y="351"/>
      <point x="143" y="381"/>
      <point x="167" y="405" type="curve" smooth="yes"/>
      <point x="191" y="428"/>
      <point x="221" y="440"/>
      <point x="257" y="440" type="curve" smooth="yes"/>
      <point x="293" y="440"/>
      <point x="323" y="428"/>
      <point x="347" y="405" type="curve" smooth="yes"/>
      <point x="370" y="382"/>
      <point x="382" y="352"/>
      <point x="382" y="315" type="curve" smooth="yes"/>
      <point x="382" y="279"/>
      <point x="370" y="249"/>
      <point x="347" y="226" type="curve" smooth="yes"/>
      <point x="323" y="202"/>
      <point x="293" y="190"/>
      <point x="257" y="190" type="curve" smooth="yes"/>
      <point x="221" y="190"/>
      <point x="191" y="202"/>
      <point x="167" y="226" type="curve" smooth="yes"/>
      <point x="143" y="249"/>
      <point x="131" y="279"/>
    </contour>
  </outline>
</glyph>
<glyph name="minus" format="2">
  <advance width="402"/>
  <unicode hex="2212"/>
  <outline>
    <contour>
      <point x="88" y="389" type="line"/>
      <point x="370" y="389" type="line"/>
      <point x="356" y="322" type="line"/>
      <point x="75" y="322" type="line"/>
    </contour>
  </outline>
</glyph>
<glyph name="Decyr.loclBGR" format="2">
  <advance width="650"/>
  <outline>
    <component base="Elcyr.loclBGR" xOffset="27"/>
    <contour>
      <point x="401" y="0" type="line"/>
      <point x="565" y="0" type="line"/>
      <point x="565" y="-170" type="line"/>
      <point x="640" y="-170" type="line"/>
      <point x="640" y="67" type="line"/>
      <point x="401" y="67" type="line"/>
    </contour>
    <contour>
      <point x="181" y="0" type="line"/>
      <point x="421" y="0" type="line"/>
      <point x="421" y="67" type="line"/>
      <point x="181" y="67" type="line"/>
    </contour>
    <contour>
      <point x="10" y="-170" type="line"/>
      <point x="85" y="-170" type="line"/>
      <point x="85" y="0" type="line"/>
      <point x="201" y="0" type="line"/>
      <point x="201" y="67" type="line"/>
      <point x="10" y="67" type="line"/>
    </contour>
  </outline>
</glyph>
<glyph name="Elcyr.loclBGR" format="2">
  <advance width="591"/>
  <outline>
    <contour>
      <point x="356" y="707" type="line"/>
      <point x="419" y="707" type="line"/>
      <point x="529" y="0" type="line"/>
      <point x="450" y="0" type="line"/>
      <point x="365" y="602" type="line"/>
      <point x="31" y="0" type="line"/>
      <point x="-48" y="0" type="line"/>
    </contour>
  </outline>
</glyph>
<glyph name=".notdef" format="2">
  <advance width="614"/>
  <outline>
    <contour>
      <point x="124" y="707" type="line"/>
      <point x="530" y="707" type="line"/>
      <point x="530" y="0" type="line"/>
      <point x="124" y="0" type="line"/>
    </contour>
    <contour>
      <point x="496" y="35" type="line"/>
      <point x="496" y="672" type="line"/>
      <point x="159" y="672" type="line"/>
      <point x="159" y="35" type="line"/>
    </contour>
  </outline>
</glyph>
<glyph name="eight.dnom" format="2">
  <advance width="335"/>
  <outline>
    <contour>
      <point x="269" y="220" type="qcurve"/>
      <point x="301" y="195"/>
      <point x="301" y="149" type="qcurve" smooth="yes"/>
      <point x="301" y="136"/>
      <point x="293" y="106" type="qcurve" smooth="yes"/>
      <point x="279" y="49"/>
      <point x="237" y="16" type="qcurve" smooth="yes"/>
      <point x="194" y="-17"/>
      <point x="139" y="-17" type="qcurve" smooth="yes"/>
      <point x="83" y="-17"/>
      <point x="51" y="10" type="qcurve" smooth="yes"/>
      <point x="19" y="37"/>
      <point x="19" y="83" type="qcurve" smooth="yes"/>
      <point x="19" y="96"/>
      <point x="25" y="129" type="qcurve" smooth="yes"/>
      <point x="31" y="162"/>
      <point x="53" y="186" type="qcurve" smooth="yes"/>
      <point x="75" y="210"/>
      <point x="99" y="223" type="qcurve"/>
      <point x="73" y="246"/>
      <point x="73" y="286" type="qcurve" smooth="yes"/>
      <point x="73" y="298"/>
      <point x="75" y="306" type="qcurve" smooth="yes"/>
      <point x="77" y="314"/>
      <point x="78" y="323" type="qcurve" smooth="yes"/>
      <point x="88" y="373"/>
      <point x="128" y="405" type="qcurve" smooth="yes"/>
      <point x="168" y="437"/>
      <point x="222" y="437" type="qcurve" smooth="yes"/>
      <point x="276" y="437"/>
      <point x="305" y="411" type="qcurve" smooth="yes"/>
      <point x="335" y="385"/>
      <point x="335" y="342" type="qcurve" smooth="yes"/>
      <point x="335" y="330"/>
      <point x="333" y="319" type="qcurve" smooth="yes"/>
      <point x="331" y="306" type="line" smooth="yes"/>
      <point x="321" y="250"/>
    </contour>
    <contour>
      <point x="261" y="323" type="line" smooth="yes"/>
      <point x="263" y="332"/>
      <point x="263" y="344" type="qcurve" smooth="yes"/>
      <point x="263" y="355"/>
      <point x="252" y="365" type="qcurve" smooth="yes"/>
      <point x="241" y="375"/>
      <point x="217" y="375" type="qcurve" smooth="yes"/>
      <point x="194" y="375"/>
      <point x="174" y="359" type="qcurve" smooth="yes"/>
      <point x="154" y="343"/>
      <point x="150" y="320" type="qcurve" smooth="yes"/>
      <point x="146" y="296"/>
      <point x="145" y="284" type="qcurve" smooth="yes"/>
      <point x="145" y="272"/>
      <point x="157" y="262" type="qcurve" smooth="yes"/>
      <point x="168" y="252"/>
      <point x="192" y="251" type="qcurve" smooth="yes"/>
      <point x="216" y="251"/>
      <point x="235" y="268" type="qcurve" smooth="yes"/>
      <point x="254" y="284"/>
      <point x="259" y="310" type="qcurve" smooth="yes"/>
    </contour>
    <contour>
      <point x="228" y="144" type="qcurve" smooth="yes"/>
      <point x="228" y="190"/>
      <point x="178" y="189" type="qcurve" smooth="yes"/>
      <point x="148" y="189"/>
      <point x="126" y="171" type="qcurve" smooth="yes"/>
      <point x="104" y="153"/>
      <point x="97" y="126" type="qcurve" smooth="yes"/>
      <point x="91" y="99"/>
      <point x="91" y="85" type="qcurve" smooth="yes"/>
      <point x="91" y="70"/>
      <point x="104" y="57" type="qcurve" smooth="yes"/>
      <point x="117" y="44"/>
      <point x="144" y="45" type="qcurve" smooth="yes"/>
      <point x="171" y="45"/>
      <point x="193" y="63" type="qcurve" smooth="yes"/>
      <point x="215" y="81"/>
      <point x="220" y="103" type="qcurve" smooth="yes"/>
      <point x="228" y="134"/>
    </contour>
  </outline>
</glyph>
<glyph name="five.dnom" format="2">
  <advance width="316"/>
  <outline>
    <contour>
      <point x="15" y="69" type="qcurve" smooth="yes"/>
      <point x="15" y="84"/>
      <point x="21" y="110" type="qcurve"/>
      <point x="89" y="110" type="line"/>
      <point x="86" y="87"/>
      <point x="86" y="83" type="qcurve" smooth="yes"/>
      <point x="86" y="61"/>
      <point x="98" y="53" type="qcurve" smooth="yes"/>
      <point x="110" y="45"/>
      <point x="137" y="45" type="qcurve" smooth="yes"/>
      <point x="190" y="45"/>
      <point x="204" y="115" type="qcurve" smooth="yes"/>
      <point x="212" y="155"/>
      <point x="214" y="161" type="qcurve" smooth="yes"/>
      <point x="215" y="168"/>
      <point x="216" y="186" type="qcurve" smooth="yes"/>
      <point x="216" y="204"/>
      <point x="204" y="213" type="qcurve" smooth="yes"/>
      <point x="193" y="221"/>
      <point x="173" y="221" type="qcurve" smooth="yes"/>
      <point x="130" y="221"/>
      <point x="111" y="185" type="qcurve" smooth="yes"/>
      <point x="108" y="178" type="line"/>
      <point x="43" y="178" type="line"/>
      <point x="100" y="431" type="line"/>
      <point x="341" y="431" type="line"/>
      <point x="327" y="368" type="line"/>
      <point x="154" y="368" type="line"/>
      <point x="133" y="272" type="line"/>
      <point x="158" y="284"/>
      <point x="197" y="284" type="qcurve" smooth="yes"/>
      <point x="237" y="284"/>
      <point x="263" y="260" type="qcurve" smooth="yes"/>
      <point x="290" y="236"/>
      <point x="290" y="192" type="qcurve" smooth="yes"/>
      <point x="290" y="172"/>
      <point x="285" y="152" type="qcurve" smooth="yes"/>
      <point x="275" y="106" type="line" smooth="yes"/>
      <point x="262" y="47"/>
      <point x="223" y="15" type="qcurve" smooth="yes"/>
      <point x="184" y="-17"/>
      <point x="129" y="-17" type="qcurve" smooth="yes"/>
      <point x="74" y="-17"/>
      <point x="44" y="5" type="qcurve" smooth="yes"/>
      <point x="15" y="27"/>
    </contour>
  </outline>
</glyph>
<glyph name="kacyr.loclBGR" format="2">
  <advance width="505"/>
  <outline>
    <contour>
      <point x="22" y="0" type="line"/>
      <point x="91" y="0" type="line"/>
      <point x="238" y="707" type="line"/>
      <point x="169" y="707" type="line"/>
    </contour>
    <contour>
      <point x="194" y="261" type="line"/>
      <point x="269" y="261" type="line"/>
      <point x="510" y="519" type="line"/>
      <point x="426" y="519" type="line"/>
    </contour>
    <contour>
      <point x="346" y="0" type="line"/>
      <point x="431" y="0" type="line"/>
      <point x="277" y="306" type="line"/>
      <point x="222" y="248" type="line"/>
    </contour>
    <contour>
      <point x="121" y="240" type="line"/>
      <point x="256" y="240" type="line"/>
      <point x="269" y="305" type="line"/>
      <point x="134" y="305" type="line"/>
    </contour>
  </outline>
</glyph>
<glyph name="nine.dnom" format="2">
  <advance width="323"/>
  <outline>
    <contour>
      <point x="117" y="404" type="qcurve" smooth="yes"/>
      <point x="159" y="437"/>
      <point x="215" y="437" type="qcurve" smooth="yes"/>
      <point x="271" y="437"/>
      <point x="303" y="410" type="qcurve" smooth="yes"/>
      <point x="335" y="383"/>
      <point x="335" y="337" type="qcurve" smooth="yes"/>
      <point x="335" y="324"/>
      <point x="329" y="292" type="qcurve" smooth="yes"/>
      <point x="323" y="260"/>
      <point x="311" y="238" type="qcurve" smooth="yes"/>
      <point x="299" y="216"/>
      <point x="280" y="191" type="qcurve" smooth="yes"/>
      <point x="126" y="-11" type="line"/>
      <point x="44" y="-11" type="line"/>
      <point x="176" y="162" type="line"/>
      <point x="166" y="160"/>
      <point x="156" y="160" type="qcurve" smooth="yes"/>
      <point x="109" y="160"/>
      <point x="81" y="187" type="qcurve" smooth="yes"/>
      <point x="53" y="213"/>
      <point x="53" y="257" type="qcurve" smooth="yes"/>
      <point x="53" y="277"/>
      <point x="62" y="312" type="qcurve" smooth="yes"/>
      <point x="75" y="371"/>
    </contour>
    <contour>
      <point x="127" y="267" type="qcurve" smooth="yes"/>
      <point x="127" y="222"/>
      <point x="175" y="223" type="qcurve" smooth="yes"/>
      <point x="206" y="223"/>
      <point x="228" y="241" type="qcurve" smooth="yes"/>
      <point x="250" y="259"/>
      <point x="256" y="290" type="qcurve" smooth="yes"/>
      <point x="263" y="321"/>
      <point x="262" y="330" type="qcurve" smooth="yes"/>
      <point x="262" y="375"/>
      <point x="213" y="375" type="qcurve" smooth="yes"/>
      <point x="184" y="375"/>
      <point x="162" y="357" type="qcurve" smooth="yes"/>
      <point x="141" y="339"/>
      <point x="134" y="308" type="qcurve" smooth="yes"/>
      <point x="127" y="276"/>
    </contour>
  </outline>
</glyph>
<glyph name="seven.tosf" format="2">
  <advance width="524"/>
  <outline>
    <contour>
      <point x="498" y="519" type="line"/>
      <point x="484" y="451" type="line"/>
      <point x="126" y="-162" type="line"/>
      <point x="51" y="-162" type="line"/>
      <point x="413" y="451" type="line"/>
      <point x="125" y="451" type="line"/>
      <point x="139" y="519" type="line"/>
    </contour>
  </outline>
</glyph>
<glyph name="shchacyr.loclBGR" format="2">
  <advance width="823"/>
  <outline>
    <component base="shacyr.loclBGR"/>
    <contour>
      <point x="663" y="-170" type="line"/>
      <point x="698" y="0" type="line"/>
      <point x="678" y="0" type="line"/>
      <point x="692" y="65" type="line"/>
      <point x="782" y="65" type="line"/>
      <point x="733" y="-170" type="line"/>
    </contour>
  </outline>
</glyph>
<glyph name="six.dnom" format="2">
  <advance width="323"/>
  <outline>
    <contour>
      <point x="14" y="81" type="qcurve" smooth="yes"/>
      <point x="14" y="156"/>
      <point x="69" y="229" type="qcurve" smooth="yes"/>
      <point x="223" y="431" type="line"/>
      <point x="305" y="431" type="line"/>
      <point x="174" y="258" type="line"/>
      <point x="183" y="259"/>
      <point x="193" y="260" type="qcurve" smooth="yes"/>
      <point x="240" y="260"/>
      <point x="267" y="234" type="qcurve" smooth="yes"/>
      <point x="295" y="208"/>
      <point x="296" y="163" type="qcurve" smooth="yes"/>
      <point x="296" y="146"/>
      <point x="287" y="109" type="qcurve" smooth="yes"/>
      <point x="273" y="50"/>
      <point x="231" y="17" type="qcurve" smooth="yes"/>
      <point x="188" y="-17"/>
      <point x="132" y="-17" type="qcurve" smooth="yes"/>
      <point x="76" y="-17"/>
      <point x="45" y="9" type="qcurve" smooth="yes"/>
      <point x="14" y="35"/>
    </contour>
    <contour>
      <point x="88" y="91" type="qcurve" smooth="yes"/>
      <point x="88" y="45"/>
      <point x="136" y="45" type="qcurve" smooth="yes"/>
      <point x="166" y="45"/>
      <point x="187" y="62" type="qcurve" smooth="yes"/>
      <point x="211" y="82"/>
      <point x="218" y="130" type="qcurve" smooth="yes"/>
      <point x="222" y="145"/>
      <point x="222" y="159" type="qcurve" smooth="yes"/>
      <point x="222" y="173"/>
      <point x="209" y="185" type="qcurve" smooth="yes"/>
      <point x="196" y="197"/>
      <point x="170" y="197" type="qcurve" smooth="yes"/>
      <point x="143" y="197"/>
      <point x="122" y="179" type="qcurve" smooth="yes"/>
      <point x="101" y="162"/>
      <point x="96" y="138" type="qcurve" smooth="yes"/>
      <point x="88" y="103"/>
    </contour>
  </outline>
</glyph>
<glyph name="softcyr.loclBGR" format="2">
  <advance width="555"/>
  <outline>
    <contour>
      <point x="291" y="322" type="curve" smooth="yes"/>
      <point x="237" y="322"/>
      <point x="191" y="292"/>
      <point x="146" y="261" type="curve"/>
      <point x="130" y="182" type="line"/>
      <point x="114" y="107"/>
      <point x="151" y="56"/>
      <point x="229" y="56" type="curve" smooth="yes"/>
      <point x="313" y="56"/>
      <point x="368" y="111"/>
      <point x="384" y="189" type="curve" smooth="yes"/>
      <point x="401" y="267"/>
      <point x="362" y="322"/>
    </contour>
    <contour>
      <point x="130" y="519" type="line"/>
      <point x="200" y="519" type="line"/>
      <point x="164" y="344" type="line"/>
      <point x="207" y="369"/>
      <point x="252" y="387"/>
      <point x="306" y="387" type="curve" smooth="yes"/>
      <point x="422" y="387"/>
      <point x="490" y="317"/>
      <point x="465" y="195" type="curve" smooth="yes"/>
      <point x="441" y="80"/>
      <point x="349" y="-6"/>
      <point x="210" y="-6" type="curve" smooth="yes"/>
      <point x="95" y="-6"/>
      <point x="37" y="71"/>
      <point x="60" y="182" type="curve"/>
    </contour>
  </outline>
</glyph>
<glyph name="three.dnom" format="2">
  <advance width="323"/>
  <outline>
    <contour>
      <point x="86" y="83" type="qcurve" smooth="yes"/>
      <point x="86" y="44"/>
      <point x="134" y="45" type="qcurve" smooth="yes"/>
      <point x="163" y="45"/>
      <point x="184" y="61" type="qcurve" smooth="yes"/>
      <point x="204" y="78"/>
      <point x="210" y="106" type="qcurve" smooth="yes"/>
      <point x="216" y="134"/>
      <point x="216" y="144" type="qcurve" smooth="yes"/>
      <point x="216" y="187"/>
      <point x="168" y="187" type="qcurve" smooth="yes"/>
      <point x="142" y="187" type="line"/>
      <point x="127" y="187" type="line"/>
      <point x="143" y="249" type="line"/>
      <point x="152" y="249" type="line"/>
      <point x="175" y="249" type="line" smooth="yes"/>
      <point x="203" y="249"/>
      <point x="223" y="265" type="qcurve" smooth="yes"/>
      <point x="244" y="281"/>
      <point x="249" y="306" type="qcurve" smooth="yes"/>
      <point x="254" y="331"/>
      <point x="254" y="343" type="qcurve" smooth="yes"/>
      <point x="254" y="355"/>
      <point x="242" y="365" type="qcurve" smooth="yes"/>
      <point x="230" y="375"/>
      <point x="205" y="375" type="qcurve" smooth="yes"/>
      <point x="154" y="375"/>
      <point x="140" y="311" type="qcurve" smooth="yes"/>
      <point x="138" y="302" type="line"/>
      <point x="67" y="302" type="line"/>
      <point x="70" y="316" type="line" smooth="yes"/>
      <point x="81" y="369"/>
      <point x="116" y="403" type="qcurve" smooth="yes"/>
      <point x="150" y="437"/>
      <point x="209" y="437" type="qcurve" smooth="yes"/>
      <point x="267" y="437"/>
      <point x="298" y="413" type="qcurve" smooth="yes"/>
      <point x="329" y="389"/>
      <point x="328" y="346" type="qcurve" smooth="yes"/>
      <point x="328" y="333"/>
      <point x="320" y="302" type="qcurve" smooth="yes"/>
      <point x="307" y="250"/>
      <point x="257" y="221" type="qcurve"/>
      <point x="289" y="198"/>
      <point x="289" y="152" type="qcurve" smooth="yes"/>
      <point x="289" y="137"/>
      <point x="283" y="106" type="qcurve" smooth="yes"/>
      <point x="271" y="49"/>
      <point x="229" y="16" type="qcurve" smooth="yes"/>
      <point x="187" y="-17"/>
      <point x="131" y="-17" type="qcurve" smooth="yes"/>
      <point x="75" y="-17"/>
      <point x="44" y="7" type="qcurve" smooth="yes"/>
      <point x="14" y="31"/>
      <point x="13" y="75" type="qcurve" smooth="yes"/>
      <point x="13" y="93"/>
      <point x="19" y="115" type="qcurve"/>
      <point x="91" y="115" type="line"/>
      <point x="86" y="88"/>
    </contour>
  </outline>
</glyph>
<glyph name="three.sups" format="2">
  <advance width="367"/>
  <outline>
    <contour>
      <point x="118" y="513" type="curve" smooth="yes"/>
      <point x="118" y="522"/>
      <point x="120" y="536"/>
      <point x="125" y="555" type="curve"/>
      <point x="186" y="555" type="line"/>
      <point x="184" y="544"/>
      <point x="183" y="536"/>
      <point x="183" y="531" type="curve" smooth="yes"/>
      <point x="183" y="519"/>
      <point x="187" y="509"/>
      <point x="196" y="502" type="curve" smooth="yes"/>
      <point x="204" y="494"/>
      <point x="215" y="490"/>
      <point x="229" y="490" type="curve" smooth="yes"/>
      <point x="253" y="490"/>
      <point x="272" y="500"/>
      <point x="286" y="520" type="curve" smooth="yes"/>
      <point x="299" y="540"/>
      <point x="306" y="562"/>
      <point x="306" y="587" type="curve" smooth="yes"/>
      <point x="306" y="602"/>
      <point x="302" y="613"/>
      <point x="294" y="621" type="curve" smooth="yes"/>
      <point x="285" y="629"/>
      <point x="273" y="633"/>
      <point x="256" y="633" type="curve" smooth="yes"/>
      <point x="234" y="633" type="line"/>
      <point x="247" y="690" type="line"/>
      <point x="268" y="690" type="line" smooth="yes"/>
      <point x="291" y="690"/>
      <point x="308" y="699"/>
      <point x="321" y="716" type="curve" smooth="yes"/>
      <point x="334" y="733"/>
      <point x="340" y="753"/>
      <point x="340" y="776" type="curve" smooth="yes"/>
      <point x="340" y="789"/>
      <point x="336" y="799"/>
      <point x="329" y="806" type="curve" smooth="yes"/>
      <point x="322" y="813"/>
      <point x="311" y="817"/>
      <point x="298" y="817" type="curve" smooth="yes"/>
      <point x="281" y="817"/>
      <point x="267" y="812"/>
      <point x="256" y="803" type="curve" smooth="yes"/>
      <point x="245" y="793"/>
      <point x="237" y="780"/>
      <point x="233" y="764" type="curve" smooth="yes"/>
      <point x="231" y="754" type="line"/>
      <point x="169" y="754" type="line"/>
      <point x="171" y="765" type="line" smooth="yes"/>
      <point x="177" y="798"/>
      <point x="192" y="825"/>
      <point x="217" y="845" type="curve" smooth="yes"/>
      <point x="241" y="864"/>
      <point x="271" y="874"/>
      <point x="308" y="874" type="curve" smooth="yes"/>
      <point x="339" y="874"/>
      <point x="363" y="866"/>
      <point x="382" y="851" type="curve" smooth="yes"/>
      <point x="401" y="835"/>
      <point x="410" y="813"/>
      <point x="410" y="785" type="curve" smooth="yes"/>
      <point x="410" y="760"/>
      <point x="403" y="736"/>
      <point x="389" y="713" type="curve" smooth="yes"/>
      <point x="375" y="690"/>
      <point x="355" y="675"/>
      <point x="330" y="666" type="curve"/>
      <point x="345" y="661"/>
      <point x="357" y="652"/>
      <point x="364" y="639" type="curve" smooth="yes"/>
      <point x="371" y="626"/>
      <point x="375" y="611"/>
      <point x="375" y="594" type="curve" smooth="yes"/>
      <point x="375" y="565"/>
      <point x="368" y="539"/>
      <point x="355" y="515" type="curve" smooth="yes"/>
      <point x="342" y="490"/>
      <point x="323" y="471"/>
      <point x="300" y="456" type="curve" smooth="yes"/>
      <point x="276" y="441"/>
      <point x="250" y="434"/>
      <point x="221" y="434" type="curve" smooth="yes"/>
      <point x="189" y="434"/>
      <point x="164" y="441"/>
      <point x="146" y="455" type="curve" smooth="yes"/>
      <point x="127" y="469"/>
      <point x="118" y="488"/>
    </contour>
  </outline>
</glyph>
<glyph name="two.dnom" format="2">
  <advance width="307"/>
  <outline>
    <contour>
      <point x="248" y="339" type="qcurve" smooth="yes"/>
      <point x="248" y="375"/>
      <point x="205" y="375" type="qcurve" smooth="yes"/>
      <point x="151" y="375"/>
      <point x="137" y="316" type="qcurve" smooth="yes"/>
      <point x="134" y="306"/>
      <point x="131" y="296" type="qcurve"/>
      <point x="60" y="296" type="line"/>
      <point x="12" y="61"/>
      <point x="65" y="323" type="qcurve" smooth="yes"/>
      <point x="75" y="375"/>
      <point x="114" y="406" type="qcurve" smooth="yes"/>
      <point x="154" y="437"/>
      <point x="208" y="437" type="qcurve" smooth="yes"/>
      <point x="262" y="437"/>
      <point x="291" y="411" type="qcurve" smooth="yes"/>
      <point x="321" y="385"/>
      <point x="321" y="345" type="qcurve" smooth="yes"/>
      <point x="321" y="334"/>
      <point x="316" y="307" type="qcurve" smooth="yes"/>
      <point x="307" y="263"/>
      <point x="249" y="204" type="qcurve" smooth="yes"/>
      <point x="191" y="144"/>
      <point x="100" y="51" type="qcurve"/>
      <point x="258" y="51" type="line"/>
      <point x="243" y="-11" type="line"/>
      <point x="-11" y="-11" type="line"/>
      <point x="0" y="41" type="line"/>
      <point x="202" y="245" type="line" smooth="yes"/>
      <point x="239" y="283"/>
      <point x="243" y="308" type="qcurve" smooth="yes"/>
      <point x="247" y="333"/>
    </contour>
  </outline>
</glyph>
<glyph name="two.sups" format="2">
  <advance width="394"/>
  <outline>
    <contour>
      <point x="129" y="494" type="line"/>
      <point x="311" y="686" type="line" smooth="yes"/>
      <point x="340" y="717"/>
      <point x="355" y="748"/>
      <point x="355" y="777" type="curve" smooth="yes"/>
      <point x="355" y="790"/>
      <point x="352" y="800"/>
      <point x="345" y="807" type="curve" smooth="yes"/>
      <point x="338" y="814"/>
      <point x="327" y="817"/>
      <point x="313" y="817" type="curve" smooth="yes"/>
      <point x="296" y="817"/>
      <point x="282" y="812"/>
      <point x="271" y="802" type="curve" smooth="yes"/>
      <point x="260" y="791"/>
      <point x="252" y="776"/>
      <point x="248" y="756" type="curve" smooth="yes"/>
      <point x="246" y="744" type="line"/>
      <point x="179" y="744" type="line"/>
      <point x="182" y="760" type="line" smooth="yes"/>
      <point x="189" y="795"/>
      <point x="206" y="822"/>
      <point x="233" y="843" type="curve" smooth="yes"/>
      <point x="259" y="864"/>
      <point x="291" y="874"/>
      <point x="329" y="874" type="curve" smooth="yes"/>
      <point x="360" y="874"/>
      <point x="384" y="867"/>
      <point x="402" y="852" type="curve" smooth="yes"/>
      <point x="420" y="837"/>
      <point x="429" y="817"/>
      <point x="429" y="792" type="curve" smooth="yes"/>
      <point x="429" y="765"/>
      <point x="423" y="740"/>
      <point x="411" y="718" type="curve" smooth="yes"/>
      <point x="399" y="696"/>
      <point x="382" y="674"/>
      <point x="360" y="651" type="curve" smooth="yes"/>
      <point x="219" y="501" type="line"/>
      <point x="369" y="501" type="line"/>
      <point x="356" y="440" type="line"/>
      <point x="117" y="440" type="line"/>
    </contour>
  </outline>
</glyph>
<glyph name="vecyr.loclBGR" format="2">
  <advance width="535"/>
  <outline>
    <contour>
      <point x="77" y="173" type="line"/>
      <point x="77" y="65"/>
      <point x="158" y="-6"/>
      <point x="258" y="-6" type="curve" smooth="yes"/>
      <point x="385" y="-6"/>
      <point x="459" y="86"/>
      <point x="459" y="228" type="curve" smooth="yes"/>
      <point x="459" y="311"/>
      <point x="421" y="375"/>
      <point x="371" y="391" type="curve"/>
      <point x="371" y="395" type="line"/>
      <point x="415" y="424"/>
      <point x="439" y="458"/>
      <point x="439" y="535" type="curve" smooth="yes"/>
      <point x="439" y="642"/>
      <point x="372" y="707"/>
      <point x="261" y="707" type="curve" smooth="yes"/>
      <point x="151" y="707"/>
      <point x="77" y="638"/>
      <point x="77" y="519" type="curve"/>
      <point x="147" y="519" type="line"/>
      <point x="147" y="595"/>
      <point x="186" y="642"/>
      <point x="263" y="642" type="curve" smooth="yes"/>
      <point x="329" y="642"/>
      <point x="369" y="601"/>
      <point x="369" y="532" type="curve" smooth="yes"/>
      <point x="369" y="445"/>
      <point x="336" y="411"/>
      <point x="253" y="411" type="curve" smooth="yes"/>
      <point x="127" y="411" type="line"/>
      <point x="127" y="346" type="line"/>
      <point x="286" y="346" type="line" smooth="yes"/>
      <point x="343" y="346"/>
      <point x="380" y="302"/>
      <point x="380" y="234" type="curve" smooth="yes"/>
      <point x="380" y="123"/>
      <point x="349" y="59"/>
      <point x="264" y="59" type="curve" smooth="yes"/>
      <point x="200" y="59"/>
      <point x="147" y="102"/>
      <point x="147" y="173" type="curve"/>
    </contour>
    <contour>
      <point x="77" y="173" type="line"/>
      <point x="147" y="173" type="line"/>
      <point x="147" y="519" type="line"/>
      <point x="77" y="519" type="line"/>
    </contour>
  </outline>
</glyph>
<glyph name="zero.dnom" format="2">
  <advance width="321"/>
  <outline>
    <contour>
      <point x="19" y="83" type="qcurve" smooth="yes"/>
      <point x="19" y="104"/>
      <point x="29" y="146" type="qcurve" smooth="yes"/>
      <point x="39" y="188"/>
      <point x="64" y="296" type="qcurve" smooth="yes"/>
      <point x="81" y="366"/>
      <point x="118" y="402" type="qcurve" smooth="yes"/>
      <point x="155" y="437"/>
      <point x="213" y="437" type="qcurve" smooth="yes"/>
      <point x="329" y="437"/>
      <point x="330" y="339" type="qcurve" smooth="yes"/>
      <point x="330" y="318"/>
      <point x="323" y="292" type="qcurve" smooth="yes"/>
      <point x="285" y="126" type="line" smooth="yes"/>
      <point x="268" y="55"/>
      <point x="231" y="19" type="qcurve" smooth="yes"/>
      <point x="194" y="-17"/>
      <point x="136" y="-17" type="qcurve" smooth="yes"/>
      <point x="78" y="-17"/>
      <point x="48" y="9" type="qcurve" smooth="yes"/>
      <point x="19" y="35"/>
    </contour>
    <contour>
      <point x="215" y="139" type="qcurve" smooth="yes"/>
      <point x="249" y="285"/>
      <point x="252" y="298" type="qcurve" smooth="yes"/>
      <point x="255" y="311"/>
      <point x="255" y="334" type="qcurve" smooth="yes"/>
      <point x="255" y="356"/>
      <point x="245" y="365" type="qcurve" smooth="yes"/>
      <point x="235" y="374"/>
      <point x="208" y="374" type="qcurve" smooth="yes"/>
      <point x="180" y="374"/>
      <point x="162" y="354" type="qcurve" smooth="yes"/>
      <point x="144" y="334"/>
      <point x="132" y="280" type="qcurve" smooth="yes"/>
      <point x="98" y="134" type="line" smooth="yes"/>
      <point x="92" y="108"/>
      <point x="92" y="87" type="qcurve" smooth="yes"/>
      <point x="92" y="65"/>
      <point x="102" y="55" type="qcurve" smooth="yes"/>
      <point x="112" y="45"/>
      <point x="140" y="45" type="qcurve" smooth="yes"/>
      <point x="168" y="45"/>
      <point x="186" y="65" type="qcurve" smooth="yes"/>
      <point x="203" y="86"/>
    </contour>
  </outline>
</glyph>
<glyph name="zero.osf" format="2">
  <advance width="504"/>
  <outline>
    <contour>
      <point x="58" y="216" type="curve" smooth="yes"/>
      <point x="77" y="307" type="line" smooth="yes"/>
      <point x="108" y="455"/>
      <point x="184" y="529"/>
      <point x="307" y="529" type="curve" smooth="yes"/>
      <point x="431" y="529"/>
      <point x="477" y="455"/>
      <point x="446" y="307" type="curve" smooth="yes"/>
      <point x="427" y="216" type="line" smooth="yes"/>
      <point x="396" y="65"/>
      <point x="319" y="-10"/>
      <point x="195" y="-10" type="curve" smooth="yes"/>
      <point x="72" y="-10"/>
      <point x="27" y="65"/>
    </contour>
    <contour>
      <point x="302" y="97" type="curve" smooth="yes"/>
      <point x="325" y="124"/>
      <point x="342" y="168"/>
      <point x="355" y="230" type="curve" smooth="yes"/>
      <point x="367" y="288" type="line" smooth="yes"/>
      <point x="380" y="350"/>
      <point x="381" y="394"/>
      <point x="370" y="421" type="curve" smooth="yes"/>
      <point x="358" y="448"/>
      <point x="333" y="461"/>
      <point x="293" y="461" type="curve" smooth="yes"/>
      <point x="253" y="461"/>
      <point x="222" y="448"/>
      <point x="200" y="421" type="curve" smooth="yes"/>
      <point x="177" y="394"/>
      <point x="160" y="350"/>
      <point x="147" y="288" type="curve" smooth="yes"/>
      <point x="135" y="230" type="line" smooth="yes"/>
      <point x="122" y="168"/>
      <point x="121" y="124"/>
      <point x="132" y="97" type="curve" smooth="yes"/>
      <point x="144" y="70"/>
      <point x="169" y="57"/>
      <point x="209" y="57" type="curve" smooth="yes"/>
      <point x="249" y="57"/>
      <point x="280" y="70"/>
    </contour>
  </outline>
</glyph>
<glyph name="zero.sups" format="2">
  <advance width="364"/>
  <outline>
    <contour>
      <point x="120" y="527" type="curve" smooth="yes"/>
      <point x="120" y="546"/>
      <point x="122" y="566"/>
      <point x="127" y="586" type="curve" smooth="yes"/>
      <point x="158" y="728" type="line" smooth="yes"/>
      <point x="168" y="777"/>
      <point x="186" y="813"/>
      <point x="211" y="838" type="curve" smooth="yes"/>
      <point x="236" y="862"/>
      <point x="268" y="874"/>
      <point x="309" y="874" type="curve" smooth="yes"/>
      <point x="377" y="874"/>
      <point x="411" y="844"/>
      <point x="412" y="783" type="curve" smooth="yes"/>
      <point x="412" y="766"/>
      <point x="410" y="748"/>
      <point x="406" y="728" type="curve" smooth="yes"/>
      <point x="376" y="586" type="line" smooth="yes"/>
      <point x="366" y="535"/>
      <point x="349" y="497"/>
      <point x="324" y="472" type="curve" smooth="yes"/>
      <point x="299" y="447"/>
      <point x="265" y="434"/>
      <point x="222" y="434" type="curve" smooth="yes"/>
      <point x="154" y="434"/>
      <point x="120" y="465"/>
    </contour>
    <contour>
      <point x="306" y="589" type="curve" smooth="yes"/>
      <point x="334" y="722" type="line" smooth="yes"/>
      <point x="339" y="746"/>
      <point x="341" y="763"/>
      <point x="341" y="772" type="curve" smooth="yes"/>
      <point x="341" y="787"/>
      <point x="338" y="797"/>
      <point x="331" y="804" type="curve" smooth="yes"/>
      <point x="324" y="811"/>
      <point x="313" y="814"/>
      <point x="298" y="814" type="curve" smooth="yes"/>
      <point x="277" y="814"/>
      <point x="262" y="807"/>
      <point x="252" y="793" type="curve" smooth="yes"/>
      <point x="242" y="779"/>
      <point x="233" y="755"/>
      <point x="226" y="722" type="curve" smooth="yes"/>
      <point x="198" y="589" type="line" smooth="yes"/>
      <point x="193" y="565"/>
      <point x="191" y="548"/>
      <point x="190" y="537" type="curve" smooth="yes"/>
      <point x="190" y="522"/>
      <point x="194" y="511"/>
      <point x="201" y="504" type="curve" smooth="yes"/>
      <point x="208" y="497"/>
      <point x="218" y="494"/>
      <point x="233" y="494" type="curve" smooth="yes"/>
      <point x="254" y="494"/>
      <point x="270" y="501"/>
      <point x="281" y="516" type="curve" smooth="yes"/>
      <point x="291" y="530"/>
      <point x="299" y="554"/>
    </contour>
  </outline>
</glyph>
